<svg width="141" height="44" viewBox="0 0 141 44" fill="none" xmlns="http://www.w3.org/2000/svg">
<path d="M44.19 29L36.035 10.625H38.625L46.115 27.67H44.89L52.485 10.625H54.935L46.745 29H44.19ZM65.412 29.175C63.6387 29.175 62.0404 28.7783 60.617 27.985C59.217 27.1683 58.1087 26.06 57.292 24.66C56.4754 23.2367 56.067 21.615 56.067 19.795C56.067 17.9517 56.4754 16.33 57.292 14.93C58.1087 13.53 59.217 12.4333 60.617 11.64C62.017 10.8467 63.6154 10.45 65.412 10.45C67.232 10.45 68.842 10.8467 70.242 11.64C71.6654 12.4333 72.7737 13.53 73.567 14.93C74.3837 16.33 74.792 17.9517 74.792 19.795C74.792 21.615 74.3837 23.2367 73.567 24.66C72.7737 26.06 71.6654 27.1683 70.242 27.985C68.8187 28.7783 67.2087 29.175 65.412 29.175ZM65.412 26.97C66.742 26.97 67.9204 26.6783 68.947 26.095C69.9737 25.4883 70.7787 24.6483 71.362 23.575C71.9687 22.4783 72.272 21.2183 72.272 19.795C72.272 18.3483 71.9687 17.0883 71.362 16.015C70.7787 14.9417 69.9737 14.1133 68.947 13.53C67.9204 12.9233 66.7537 12.62 65.447 12.62C64.1404 12.62 62.9737 12.9233 61.947 13.53C60.9204 14.1133 60.1037 14.9417 59.497 16.015C58.8904 17.0883 58.587 18.3483 58.587 19.795C58.587 21.2183 58.8904 22.4783 59.497 23.575C60.1037 24.6483 60.9204 25.4883 61.947 26.095C62.9737 26.6783 64.1287 26.97 65.412 26.97ZM79.8654 29V3.03H82.3504V29H79.8654ZM95.1773 29.175C93.4507 29.175 92.1207 28.7083 91.1873 27.775C90.254 26.8417 89.7873 25.5233 89.7873 23.82V6.565H92.2723V23.68C92.2723 24.7533 92.5407 25.5817 93.0773 26.165C93.6373 26.7483 94.4307 27.04 95.4573 27.04C96.554 27.04 97.464 26.725 98.1873 26.095L99.0623 27.88C98.5723 28.3233 97.9773 28.65 97.2773 28.86C96.6007 29.07 95.9007 29.175 95.1773 29.175ZM86.4973 12.69V10.625H97.8723V12.69H86.4973ZM115.101 29V24.94L114.996 24.275V17.485C114.996 15.9217 114.553 14.72 113.666 13.88C112.803 13.04 111.508 12.62 109.781 12.62C108.591 12.62 107.459 12.8183 106.386 13.215C105.313 13.6117 104.403 14.1367 103.656 14.79L102.536 12.935C103.469 12.1417 104.589 11.535 105.896 11.115C107.203 10.6717 108.579 10.45 110.026 10.45C112.406 10.45 114.238 11.045 115.521 12.235C116.828 13.4017 117.481 15.1867 117.481 17.59V29H115.101ZM108.766 29.175C107.389 29.175 106.188 28.9533 105.161 28.51C104.158 28.0433 103.388 27.4133 102.851 26.62C102.314 25.8033 102.046 24.87 102.046 23.82C102.046 22.8633 102.268 22 102.711 21.23C103.178 20.4367 103.924 19.8067 104.951 19.34C106.001 18.85 107.401 18.605 109.151 18.605H115.486V20.46H109.221C107.448 20.46 106.211 20.775 105.511 21.405C104.834 22.035 104.496 22.8167 104.496 23.75C104.496 24.8 104.904 25.64 105.721 26.27C106.538 26.9 107.681 27.215 109.151 27.215C110.551 27.215 111.753 26.9 112.756 26.27C113.783 25.6167 114.529 24.6833 114.996 23.47L115.556 25.185C115.089 26.3983 114.273 27.3667 113.106 28.09C111.963 28.8133 110.516 29.175 108.766 29.175ZM124.231 29V10.625H126.611V15.63L126.366 14.755C126.879 13.355 127.742 12.2933 128.956 11.57C130.169 10.8233 131.674 10.45 133.471 10.45V12.865C133.377 12.865 133.284 12.865 133.191 12.865C133.097 12.8417 133.004 12.83 132.911 12.83C130.974 12.83 129.457 13.425 128.361 14.615C127.264 15.7817 126.716 17.45 126.716 19.62V29H124.231Z" fill="#11B5E4"/>
<path d="M12.0842 9.53863L1.00284 17.129C0.702249 17.3308 0.458792 17.5888 0.289317 17.8812C0.119841 18.1736 0.0283933 18.4935 0.0213047 18.8185C0.014216 19.1435 0.0916552 19.4661 0.248262 19.7637C0.404868 20.0614 0.636913 20.3272 0.928314 20.5426L11.978 28.7082C12.5116 29.1015 13.2098 29.3018 13.9192 29.265C14.6287 29.2282 15.2913 28.9573 15.7617 28.5119C16.232 28.0665 16.4715 27.4829 16.4276 26.8894C16.3837 26.2959 16.06 25.741 15.5275 25.3465L9.81048 21.1218L24.1673 21.1549C24.8786 21.1565 25.5614 20.9217 26.0652 20.5022C26.5691 20.0826 26.8528 19.5125 26.854 18.9175C26.8552 18.3224 26.5738 17.7511 26.0716 17.3292C25.5694 16.9073 24.8877 16.6693 24.1763 16.6677L10.1924 16.6354L15.4846 13.0123C16.0348 12.6356 16.3834 12.0914 16.4536 11.4993C16.5238 10.9072 16.3099 10.3158 15.859 9.85516C15.4081 9.39452 14.7571 9.10238 14.0491 9.04302C13.3412 8.98365 12.6344 9.16194 12.0842 9.53863Z" fill="#11B5E4"/>
</svg>
