<svg width="25" height="25" viewBox="0 0 25 25" fill="none" xmlns="http://www.w3.org/2000/svg">
<path d="M9.22359 25C8.80884 25 8.3998 24.9034 8.02886 24.7179C7.65793 24.5324 7.33529 24.263 7.08653 23.9312L0.534251 15.1947C0.323762 14.914 0.17061 14.5946 0.0835515 14.2548C-0.00350692 13.9149 -0.0227595 13.5613 0.0268664 13.214C0.0764924 12.8667 0.194029 12.5325 0.372784 12.2307C0.55154 11.9288 0.788019 11.6651 1.06869 11.4546C1.34936 11.2441 1.66874 11.091 2.00859 11.0039C2.34845 10.9169 2.70211 10.8976 3.04941 10.9472C3.39672 10.9968 3.73086 11.1144 4.03273 11.2931C4.33461 11.4719 4.59831 11.7084 4.8088 11.989L9.09553 17.7042L20.1054 1.18967C20.3 0.897752 20.5502 0.647022 20.8417 0.451799C21.1333 0.256576 21.4604 0.120684 21.8044 0.0518778C22.1484 -0.0169281 22.5027 -0.0172919 22.8468 0.050794C23.191 0.11888 23.5184 0.254089 23.8103 0.448701C24.1023 0.643313 24.353 0.893518 24.5482 1.18503C24.7434 1.47654 24.8793 1.80365 24.9481 2.14768C25.0169 2.4917 25.0173 2.84591 24.9492 3.19008C24.8811 3.53426 24.7459 3.86165 24.5513 4.15357L11.4467 23.8103C11.2097 24.1658 10.8909 24.4593 10.517 24.6661C10.1431 24.873 9.72506 24.9872 9.29794 24.9992C9.27315 24.9996 9.24837 25 9.22359 25Z" fill="#11B5E4"/>
</svg>
