<svg width="281" height="251" viewBox="0 0 281 251" fill="none" xmlns="http://www.w3.org/2000/svg">
<path d="M108.459 32.677C102.448 32.677 97.5574 37.3618 97.5574 43.1206V59.467C97.5574 65.2258 102.448 69.9106 108.459 69.9106H125.523C131.534 69.9106 136.425 65.2258 136.425 59.467V43.1206C136.425 37.3618 131.534 32.677 125.523 32.677H108.459Z" fill="#11B5E4"/>
<path d="M164.637 78.3584C158.626 78.3584 153.735 83.0432 153.735 88.802V105.148C153.735 110.907 158.626 115.592 164.637 115.592H181.701C187.712 115.592 192.603 110.907 192.603 105.148V88.802C192.603 83.0432 187.712 78.3584 181.701 78.3584H164.637Z" fill="#11B5E4"/>
<path d="M140.214 242.892L136.747 242.864L135.213 229.757L140.329 229.798L140.214 242.892Z" fill="#A0616A"/>
<path d="M129.11 248.173C129.103 248.99 129.79 249.663 130.647 249.67L137.539 249.725L138.746 247.382L139.189 249.737L141.789 249.76L141.133 241.361L140.228 241.303L136.537 241.06L135.347 240.983L135.326 243.36L129.789 246.957C129.368 247.231 129.114 247.685 129.11 248.173Z" fill="#2F2E41"/>
<path d="M157.851 242.892L154.385 242.864L152.85 229.757L157.966 229.798L157.851 242.892Z" fill="#A0616A"/>
<path d="M146.748 248.173C146.74 248.99 147.428 249.663 148.284 249.67L155.176 249.725L156.383 247.382L156.826 249.737L159.427 249.76L158.77 241.361L157.865 241.303L154.175 241.06L152.984 240.983L152.963 243.36L147.427 246.957C147.005 247.231 146.752 247.685 146.748 248.173Z" fill="#2F2E41"/>
<path d="M126.611 136.918L140.662 137.344L153.974 140.177C153.974 140.177 152.643 141.736 157.08 145.987C157.08 145.987 162.997 155.905 158.855 165.54L157.08 204.081C157.08 204.081 162.255 231.249 158.301 239.896L153.076 240.209L144.233 204.394L139.923 165.824L137.852 203.798C137.852 203.798 145.774 229.862 140.772 240.209L135.112 239.896L125.428 203.798C125.428 203.798 121.286 162.14 121.878 154.205C122.469 146.27 126.611 136.918 126.611 136.918Z" fill="#2F2E41"/>
<path d="M173.799 76.0182C171.878 76.4947 170.724 78.3726 171.221 80.2128C171.449 81.056 171.986 81.7419 172.684 82.1951L172.684 82.1998L172.411 88.5227L177.462 90.7618L177.866 81.032L177.83 81.033C178.268 80.2856 178.42 79.3826 178.178 78.4873C177.68 76.6472 175.72 75.5417 173.799 76.0182Z" fill="#A0616A"/>
<path d="M145.569 98.5841C144.508 97.5766 143.893 96.2106 143.87 94.7252C143.839 92.7324 144.881 90.9238 146.658 89.8872C148.704 88.6933 151.263 88.8141 153.177 90.1945L169.038 101.635L171.864 85.1543L177.932 87.0254L176.484 108.485C176.383 109.986 175.497 111.309 174.115 112.022C172.733 112.736 171.093 112.718 169.728 111.975L146.807 99.4819C146.346 99.2309 145.932 98.9283 145.569 98.5841Z" fill="#3F3D56"/>
<path d="M121.384 66.8001C122.398 68.434 121.838 70.5459 120.132 71.5172C119.351 71.9623 118.465 72.0872 117.636 71.9385L117.633 71.9419L113.18 76.6159L107.947 74.7994L114.812 67.6178L114.836 67.6423C115.074 66.8161 115.63 66.0728 116.46 65.6002C118.166 64.6289 120.371 65.1661 121.384 66.8001Z" fill="#A0616A"/>
<path d="M123.308 101.668L97.8492 95.0801C96.3334 94.6878 95.1558 93.5945 94.6988 92.1553C94.2419 90.7162 94.585 89.1799 95.6162 88.0455L110.36 71.8296L116.044 74.5932L105.939 88.2027L125.61 90.7761C127.984 91.0867 129.89 92.7267 130.465 94.9547C130.965 96.8893 130.376 98.8768 128.89 100.271C127.782 101.31 126.341 101.865 124.847 101.865C124.336 101.865 123.82 101.8 123.308 101.668Z" fill="#3F3D56"/>
<path d="M159.604 142.588L124.003 144.153C123.025 142.73 123.29 140.591 124.659 137.913C129.83 127.801 125.903 108.67 123.262 98.7084C122.521 95.9134 124.51 93.1349 127.505 92.8479L130.862 92.5264L133.965 83.4526H144.832L149.34 88.3867L156.991 92.8393C155.599 106.581 149.665 125.986 158.118 135.717C159.967 137.846 160.492 140.147 159.604 142.588Z" fill="#3F3D56"/>
<path d="M138.016 83.6622C143.862 83.6622 148.601 79.1224 148.601 73.5223C148.601 67.9221 143.862 63.3823 138.016 63.3823C132.17 63.3823 127.431 67.9221 127.431 73.5223C127.431 79.1224 132.17 83.6622 138.016 83.6622Z" fill="#A0616A"/>
<path d="M149.994 67.0316C151.467 61.8881 135.416 57.4774 132.297 61.6195C131.863 61.0306 130.26 60.673 129.525 60.8536C128.789 61.0342 128.171 61.4859 127.567 61.923C126.738 62.5336 125.878 63.1659 125.369 64.0438C124.856 64.9181 124.776 66.1104 125.467 66.8691C126.014 67.4724 126.974 70.6786 127.797 70.8376C128.37 70.9496 128.853 71.0399 129.267 71.1049C129.637 70.5883 130.58 69.9393 130.512 69.3143C131.07 69.6683 130.866 70.2912 130.753 70.9279C130.379 73.0479 121.936 89.4587 126.772 84.6228C127.251 84.8938 127.843 85.1467 128.525 85.3779C129.683 83.7051 130.634 81.7325 131.26 79.6695L131.264 79.7076C131.48 81.5004 132.847 82.9714 134.657 83.4736C141.915 85.488 147.786 82.5321 149.806 77.2018C149.067 75.7638 148.744 75.92 148.811 75.8773C149.734 75.2813 151.002 75.6711 151.399 76.6673C151.516 76.961 151.622 77.2118 151.714 77.4005C152.766 73.7948 154.018 74.3152 149.994 67.0316Z" fill="#2F2E41"/>
<path d="M144.987 63.2999L144.245 59.6687C144.183 59.3635 144.124 59.0323 144.267 58.7534C144.452 58.395 144.926 58.2465 145.339 58.3036C145.752 58.3607 146.061 58.722 146.472 58.7916C147.9 59.0335 149.788 57.6821 150.3 61.1009C150.513 62.5263 152.887 62.6769 153.68 63.9003C154.473 65.1236 154.571 66.8894 153.488 67.8889C152.624 68.6871 151.236 68.7792 150.114 68.3715C148.991 67.9637 148.09 67.1401 147.303 66.2716C146.516 65.4031 145.804 64.4632 144.896 63.7105" fill="#2F2E41"/>
<path d="M150.559 68.8229C147.663 68.4353 145.689 67.4262 144.691 65.8239C143.386 63.7264 144.261 61.4169 144.298 61.3196L144.911 61.5376C144.902 61.5588 144.109 63.673 145.256 65.5089C146.148 66.937 147.963 67.8436 150.649 68.2033L150.559 68.8229Z" fill="#11B5E4"/>
</svg>
