<svg width="700" height="416" viewBox="0 0 700 416" fill="none" xmlns="http://www.w3.org/2000/svg">
<path d="M354.614 116.921C348.373 107.682 340.977 97.818 329.394 94.8012C315.98 91.3077 302.201 98.2478 290.514 105.096C255.56 125.578 221.899 147.774 189.685 171.583L189.721 171.942C214.801 170.394 239.88 168.846 264.96 167.298C283.08 166.18 301.823 164.907 317.836 157.235C323.913 154.324 329.836 150.435 336.721 150.164C345.276 149.828 352.735 155.175 358.597 160.762C393.272 193.808 403.307 244.344 442.209 273.377C417.678 219.235 388.388 166.919 354.614 116.921Z" fill="#F2F2F2"/>
<path d="M567.757 397.214C563.922 392.88 562.356 391.865 558.573 387.492C527.775 351.843 498.828 314.99 471.731 276.933C453.326 251.086 435.833 224.742 419.253 197.903C411.36 185.143 403.683 172.283 396.222 159.323C390.433 149.274 384.773 139.164 379.242 128.995C377.66 126.091 376.123 123.173 374.594 120.248C370.99 113.371 367.454 106.46 363.657 99.6762C359.33 91.9441 354.062 83.8381 346.116 78.6434C342.5 76.1822 338.176 74.6931 333.65 74.35C327.181 73.9761 321.213 76.3665 315.603 78.9772C274.554 98.1338 236.125 122.151 201.366 149.481C166.518 176.871 135.369 207.816 108.555 241.684C107.735 242.733 105.795 241.731 106.623 240.676C109.883 236.55 113.208 232.468 116.598 228.43C158.745 178.263 210.424 135.121 269.272 100.978C279.173 95.2359 289.259 89.7629 299.532 84.5592C304.71 81.9351 309.91 79.3444 315.2 76.914C320.385 74.5303 325.891 72.3869 331.814 72.3068C351.973 72.0264 362.411 92.4582 369.58 106.206C371.833 110.533 374.114 114.846 376.422 119.147C385.143 135.472 394.2 151.648 403.593 167.676C409.39 177.571 415.314 187.409 421.365 197.188C440.195 227.642 460.209 257.48 481.408 286.701C509.49 325.408 537.347 359.602 569.339 395.798C570.219 396.8 568.645 398.229 567.757 397.214Z" fill="#E4E4E4"/>
<path d="M199.373 139.392C198.202 138.223 197.038 137.055 195.859 135.886C186.564 126.685 176.589 117.591 163.824 112.316C157.737 109.721 151.093 108.343 144.351 108.276C137.383 108.296 130.572 109.932 124.133 112.223C121.089 113.311 118.112 114.546 115.18 115.862C111.83 117.371 108.54 118.98 105.265 120.602C99.1175 123.647 93.0496 126.825 87.0614 130.137C75.1466 136.727 63.605 143.821 52.4365 151.417C46.6468 155.357 40.9767 159.425 35.426 163.623C30.2633 167.522 25.2051 171.526 20.2512 175.635C19.1919 176.51 17.6101 175.094 18.6695 174.219C19.9751 173.131 21.2956 172.049 22.6162 170.981C26.3465 167.963 30.1365 165.003 33.9864 162.1C41.0066 156.799 48.2085 151.702 55.5923 146.81C67.0743 139.198 78.9516 132.102 91.2241 125.523C97.3569 122.238 103.574 119.091 109.876 116.082C111.778 115.174 113.703 114.286 115.65 113.444C120.069 111.45 124.659 109.777 129.378 108.443C136.062 106.508 143.134 105.886 150.111 106.62C156.848 107.497 163.338 109.507 169.24 112.543C181.774 118.813 191.495 128.508 200.955 137.969C201.91 138.931 200.336 140.353 199.373 139.392Z" fill="#E4E4E4"/>
<path d="M456.186 234.739L486.22 224.907L501.132 220.026C505.988 218.436 510.833 216.626 515.854 215.488C520.217 214.373 524.849 214.426 529.179 215.64C533.04 216.919 536.575 218.88 539.572 221.406C542.635 223.93 545.484 226.653 548.097 229.554C551.344 233.046 554.542 236.574 557.756 240.091C571.016 254.605 584.19 269.182 597.278 283.823C610.365 298.463 623.364 313.165 636.276 327.929C649.22 342.73 662.074 357.592 674.84 372.516C676.404 374.344 677.966 376.174 679.527 378.004C680.39 379.015 682.334 378.018 681.46 376.993C668.6 361.918 655.651 346.906 642.612 331.955C629.541 316.968 616.379 302.045 603.128 287.186C589.876 272.327 576.535 257.532 563.105 242.801C559.759 239.132 556.407 235.466 553.05 231.804C550.219 228.716 547.419 225.593 544.313 222.719C538.612 217.442 531.489 212.778 522.962 212.651C517.95 212.577 513.098 214.001 508.44 215.509C503.419 217.134 498.41 218.79 493.396 220.432L463.152 230.332L455.591 232.807C454.249 233.246 454.828 235.183 456.186 234.739Z" fill="#E4E4E4"/>
<path d="M159.871 123.894C144.608 116.873 125.063 118.248 111.037 127.019C137.789 131.15 164.249 136.677 190.28 143.572C179.47 137.902 171.015 129.019 159.871 123.894Z" fill="#F2F2F2"/>
<path d="M110.887 126.995L107.949 129.133C108.943 128.384 109.976 127.683 111.037 127.019C110.987 127.012 110.937 127.003 110.887 126.995Z" fill="#F2F2F2"/>
<path d="M538.442 234.837C535.485 231.616 532.289 228.244 527.866 226.935L523.738 227.081C555.166 276.783 597.612 320.213 648.471 354.704C611.795 314.748 575.118 274.793 538.442 234.837Z" fill="#F2F2F2"/>
<path d="M281.707 208.267C283.617 214.479 287.922 219.887 293.858 223.532C296.153 224.931 298.869 226.272 299.654 228.656C300.067 230.175 299.812 231.779 298.943 233.135C298.075 234.474 297.019 235.708 295.8 236.807L295.689 237.18C289.994 234.159 284.575 230.338 281.429 225.125C278.283 219.912 277.844 213.079 281.707 208.267Z" fill="#F2F2F2"/>
<path d="M471.329 356.124C473.239 362.336 477.544 367.743 483.48 371.389C485.775 372.787 488.491 374.129 489.276 376.513C489.689 378.032 489.434 379.636 488.565 380.992C487.697 382.331 486.641 383.565 485.423 384.664L485.311 385.037C479.616 382.016 474.197 378.195 471.051 372.982C467.905 367.768 467.466 360.935 471.329 356.124Z" fill="#F2F2F2"/>
<path d="M92.8983 345.927C94.8089 352.139 99.1132 357.546 105.05 361.192C107.345 362.59 110.06 363.932 110.845 366.316C111.258 367.835 111.004 369.439 110.134 370.795C109.266 372.134 108.21 373.368 106.992 374.467L106.881 374.84C101.185 371.819 95.7668 367.998 92.6206 362.785C89.4745 357.571 89.0353 350.738 92.8983 345.927Z" fill="#F2F2F2"/>
<path d="M528.378 74.2925C551.3 74.2925 569.883 57.6615 569.883 37.1462C569.883 16.6309 551.3 0 528.378 0C505.455 0 486.872 16.6309 486.872 37.1462C486.872 57.6615 505.455 74.2925 528.378 74.2925Z" fill="#11B5E4"/>
<path d="M603.279 8.64593C583.163 6.21253 560.199 15.9431 554.985 33.5001C553.671 30.3784 551.282 27.7114 548.164 25.8844C545.046 24.0573 541.359 23.1648 537.637 23.3357C533.914 23.5067 530.349 24.7323 527.456 26.8354C524.563 28.9385 522.492 31.8104 521.542 35.036L523.845 36.5121C566.951 44.8549 611.573 44.6743 654.594 35.983C640.602 22.8224 623.394 11.0793 603.279 8.64593Z" fill="#F0F0F0"/>
<path d="M517.013 58.1742C496.898 55.7408 473.933 65.4714 468.719 83.0284C467.405 79.9068 465.017 77.2398 461.898 75.4127C458.78 73.5856 455.093 72.6931 451.371 72.8641C447.648 73.035 444.083 74.2606 441.19 76.3637C438.297 78.4669 436.226 81.3387 435.276 84.5643L437.579 86.0404C480.685 94.3832 525.307 94.2027 568.328 85.5114C554.336 72.3507 537.128 60.6076 517.013 58.1742Z" fill="#F0F0F0"/>
<path d="M214.028 305.794C213.746 305.056 213.272 304.39 212.644 303.849C212.413 303.657 212.162 303.484 211.896 303.332C209.772 302.064 206.598 301.78 204.579 303.332C204.376 303.49 204.188 303.663 204.018 303.849C203.416 304.512 202.797 305.16 202.162 305.794C201.121 306.857 200.054 307.884 198.94 308.882C198.622 309.159 198.305 309.443 197.979 309.72C197.792 309.887 197.605 310.047 197.418 310.208C196.702 310.819 195.969 311.409 195.228 311.992C194.838 312.305 194.447 312.611 194.048 312.91C193.454 313.354 192.86 313.798 192.258 314.228C192.201 314.264 192.144 314.301 192.087 314.345C192.071 314.352 192.063 314.366 192.046 314.374C192.038 314.374 192.03 314.374 192.022 314.388C192 314.396 191.98 314.409 191.965 314.425C191.786 314.534 191.664 314.607 191.574 314.672C191.607 314.658 191.64 314.636 191.672 314.621C191.526 314.723 191.371 314.825 191.224 314.927C189.8 315.867 188.343 316.77 186.854 317.615C183.169 319.726 179.299 321.565 175.282 323.114C175.013 323.209 174.736 323.311 174.46 323.405C163.94 327.262 152.53 328.767 141.215 327.79C140.059 327.71 138.903 327.601 137.748 327.462C136.413 327.287 135.087 327.076 133.768 326.836C128.749 325.94 123.838 324.613 119.103 322.874C113.18 320.446 107.547 317.489 102.289 314.046C101.475 313.529 100.653 313.012 99.8314 312.509C100.767 310.455 101.687 308.401 102.582 306.333C103.03 305.335 103.461 304.337 103.884 303.332C107.213 295.589 110.338 287.774 113.333 279.93C116.36 271.983 119.217 263.991 121.902 255.952C122.179 255.136 122.448 254.321 122.708 253.505C124.116 249.259 125.467 245.003 126.761 240.737C126.883 240.322 127.013 239.914 127.127 239.499C127.502 238.275 127.868 237.051 128.226 235.828C129.04 233.067 127.2 229.768 123.961 229.105C122.402 228.747 120.748 228.945 119.348 229.657C117.949 230.369 116.912 231.539 116.458 232.921C116.108 234.101 115.758 235.274 115.4 236.454C113.683 242.157 111.876 247.841 109.98 253.505C109.703 254.321 109.426 255.136 109.15 255.952C104.967 268.291 100.374 280.505 95.3716 292.596C94.7694 294.06 94.159 295.519 93.5405 296.973C93.2394 297.687 92.9383 298.401 92.629 299.115C92.0349 300.52 91.4246 301.926 90.8142 303.332C90.4642 304.155 90.1061 304.978 89.7481 305.794C89.5121 306.311 89.2842 306.828 89.0563 307.338C86.736 306.592 84.3319 306.074 81.8865 305.794L81.4959 305.75C79.6 305.546 77.6826 305.561 75.7909 305.794C72.9597 306.089 70.2355 306.938 67.8111 308.28C65.3867 309.621 63.3211 311.423 61.7605 313.558C57.8785 319.028 57.9274 326.851 63.3719 331.497C68.9792 336.283 77.4674 336.246 84.0676 333.253C87.5652 331.559 90.5144 329.085 92.629 326.071C93.4392 324.979 94.1835 323.848 94.8589 322.684C95.0298 322.786 95.2007 322.888 95.3716 322.997C96.0227 323.405 96.6738 323.821 97.3167 324.228C101.063 326.657 105.01 328.827 109.125 330.718C117.973 334.655 127.497 337.233 137.3 338.344C137.52 338.366 137.731 338.395 137.951 338.417C139.034 338.541 140.124 338.635 141.215 338.715C156.858 339.771 172.521 336.905 186.447 330.441C187.627 329.895 188.797 329.322 189.955 328.722C191.753 327.79 193.511 326.8 195.228 325.751C196.164 325.183 197.076 324.607 197.979 324.003C201.927 321.4 205.606 318.488 208.974 315.299C210.252 314.097 211.475 312.856 212.644 311.577C213.75 310.53 214.387 309.156 214.435 307.716C214.429 307.059 214.291 306.408 214.028 305.794ZM79.266 323.143C79.4369 323.034 79.6078 322.917 79.7705 322.801C79.7217 322.91 79.4857 323.034 79.266 323.143ZM81.8784 320.791C81.6912 320.98 81.5203 321.169 81.3331 321.359C80.7636 321.929 80.1519 322.464 79.502 322.961C79.4124 323.034 79.3148 323.107 79.2171 323.172L79.214 323.173L79.2113 323.174L79.2096 323.177L79.209 323.18C79.0914 323.227 78.9773 323.28 78.8672 323.34C78.5172 323.529 78.1591 323.704 77.7929 323.864C77.0759 324.1 76.3382 324.283 75.5875 324.41C75.0106 324.448 74.4316 324.453 73.854 324.425H73.8377C73.4391 324.346 73.0453 324.249 72.6577 324.134C72.4624 324.046 72.2752 323.944 72.088 323.842C72.0148 323.784 71.9496 323.726 71.909 323.689C71.8294 323.624 71.756 323.554 71.6893 323.478L71.6887 323.475L71.6869 323.473L71.6843 323.471L71.6811 323.471C71.5916 323.325 71.4939 323.18 71.4044 323.034C71.3998 323.03 71.3969 323.025 71.3963 323.019C71.3312 322.837 71.2742 322.648 71.2254 322.458C71.2077 322.126 71.2104 321.793 71.2335 321.461C71.3427 320.995 71.4896 320.538 71.673 320.091C71.8378 319.775 72.0253 319.468 72.2345 319.174C72.2508 319.144 72.3322 319.028 72.4217 318.897C72.4299 318.89 72.4298 318.89 72.4298 318.882C72.5519 318.758 72.674 318.627 72.8042 318.511C73.024 318.292 73.26 318.103 73.496 317.906C73.955 317.637 74.4304 317.392 74.9202 317.171C75.6971 316.924 76.4943 316.731 77.3047 316.595C78.4996 316.51 79.7007 316.52 80.8937 316.624C82.0237 316.8 83.1386 317.046 84.2304 317.36C83.5687 318.509 82.8153 319.614 81.9761 320.667C81.9435 320.71 81.9109 320.754 81.8784 320.791ZM72.8286 318.394C72.7569 318.497 72.6722 318.593 72.5763 318.678C72.6409 318.571 72.7263 318.475 72.8286 318.394Z" fill="#3F3D56"/>
<path d="M189.564 231.407C189.491 233.694 189.418 235.981 189.344 238.268C189.19 243.344 189.03 248.423 188.864 253.505C188.693 259.223 188.514 264.938 188.327 270.65C188.238 273.6 188.145 276.55 188.051 279.5C187.798 287.446 187.549 295.39 187.302 303.332C187.277 304.155 187.245 304.971 187.22 305.794C187.098 309.734 186.976 313.675 186.854 317.615C186.716 321.89 186.58 326.166 186.447 330.441C186.35 333.646 186.249 336.853 186.146 340.063C185.414 363.319 184.681 386.576 183.949 409.832C183.918 411.272 183.265 412.646 182.127 413.664C180.989 414.683 179.454 415.267 177.845 415.295C176.23 415.283 174.685 414.704 173.544 413.682C172.402 412.66 171.754 411.278 171.741 409.832C172.148 396.751 172.561 383.67 172.978 370.588C173.345 358.76 173.716 346.931 174.093 335.103C174.215 331.206 174.338 327.307 174.46 323.405C174.647 317.535 174.831 311.664 175.013 305.794C175.037 304.971 175.07 304.155 175.094 303.332C175.111 302.611 175.135 301.897 175.159 301.176C175.518 289.777 175.876 278.376 176.234 266.972C176.38 262.486 176.521 257.996 176.657 253.505C176.82 248.385 176.982 243.267 177.145 238.151C177.218 235.901 177.284 233.657 177.357 231.407C177.388 229.966 178.041 228.593 179.179 227.574C180.317 226.556 181.851 225.972 183.461 225.944C185.075 225.955 186.62 226.535 187.762 227.557C188.904 228.579 189.551 229.961 189.564 231.407Z" fill="#3F3D56"/>
<path d="M524.396 232.922C517.996 254.613 510.346 275.992 501.478 296.975C499.031 302.763 496.527 308.539 493.851 314.246L494.467 312.941C493.272 315.659 491.747 318.251 489.918 320.67C489.793 320.826 489.667 320.981 489.538 321.134C490.17 320.41 490.29 320.267 489.898 320.705C489.691 320.924 489.487 321.143 489.273 321.357C488.704 321.928 488.092 322.464 487.443 322.962C487.28 323.087 487.114 323.209 486.945 323.329L487.708 322.798C487.62 322.985 486.998 323.233 486.805 323.339C486.178 323.678 485.523 323.974 484.847 324.227L486.306 323.676C485.198 324.075 484.042 324.359 482.862 324.521L484.485 324.326C483.325 324.47 482.15 324.481 480.987 324.36L482.61 324.555C481.658 324.438 480.727 324.213 479.839 323.887L481.297 324.438C480.823 324.253 480.366 324.034 479.93 323.785C479.709 323.656 479.031 323.196 479.918 323.803C480.841 324.433 480.037 323.857 479.847 323.689C479.689 323.55 479.546 323.398 479.391 323.256C478.673 322.597 480.202 324.39 479.714 323.619C479.454 323.233 479.215 322.835 479 322.427L479.615 323.732C479.335 323.111 479.136 322.463 479.022 321.801L479.24 323.253C479.124 322.43 479.123 321.596 479.238 320.773L479.02 322.225C479.169 321.306 479.441 320.406 479.829 319.545L479.214 320.85C479.485 320.27 479.806 319.711 480.173 319.175C480.342 318.899 480.54 318.638 480.766 318.395C480.806 318.407 479.733 319.497 480.302 318.946C480.451 318.802 480.59 318.651 480.741 318.508C480.982 318.279 481.24 318.07 481.494 317.854C482.344 317.13 480.305 318.558 481.286 317.984C481.997 317.566 482.745 317.201 483.523 316.892L482.065 317.443C483.368 316.964 484.734 316.636 486.13 316.467L484.508 316.662C486.256 316.482 488.022 316.501 489.765 316.718L488.143 316.523C490.35 316.822 492.507 317.366 494.565 318.14L493.107 317.589C497.494 319.274 501.378 321.777 505.256 324.23C509.002 326.658 512.948 328.826 517.062 330.717C525.91 334.655 535.435 337.234 545.238 338.346C559.298 339.887 573.564 338.244 586.729 333.567C599.895 328.89 611.537 321.329 620.587 311.577C621.691 310.529 622.327 309.155 622.375 307.715C622.363 306.268 621.722 304.882 620.587 303.852C618.348 302.012 614.118 301.493 611.955 303.852C609.906 306.091 607.702 308.214 605.358 310.208C604.263 311.138 603.139 312.038 601.987 312.91C601.328 313.409 600.661 313.897 599.984 314.375C599.664 314.602 598.667 315.204 600.198 314.232C599.847 314.455 599.51 314.698 599.164 314.927C594.039 318.309 588.484 321.136 582.617 323.35L584.075 322.8C577.779 325.163 571.167 326.785 564.404 327.623L566.026 327.428C559.069 328.247 552.022 328.238 545.067 327.4L546.69 327.595C539.737 326.741 532.937 325.083 526.461 322.664L527.919 323.215C521.669 320.74 515.737 317.665 510.229 314.044C507.362 312.144 504.339 310.441 501.185 308.95C497.511 307.27 493.532 306.188 489.435 305.753C481.753 304.944 473.926 307.622 469.703 313.562C465.816 319.028 465.866 326.85 471.309 331.498C476.914 336.285 485.403 336.244 492.009 333.25C498.371 330.366 502.193 324.374 504.88 318.725C510.928 306.011 516.282 293.004 521.27 279.93C526.206 266.996 530.681 253.931 534.697 240.735C535.195 239.101 535.685 237.465 536.168 235.827C536.982 233.067 535.142 229.767 531.905 229.107C530.345 228.748 528.69 228.945 527.289 229.657C525.888 230.368 524.851 231.539 524.396 232.922Z" fill="#3F3D56"/>
<path d="M585.297 231.406L583.1 301.178L580.915 370.586L579.679 409.833C579.693 411.278 580.34 412.66 581.482 413.682C582.624 414.704 584.168 415.283 585.783 415.295C587.392 415.268 588.926 414.683 590.064 413.665C591.202 412.646 591.855 411.273 591.886 409.833L594.083 340.061L596.269 270.653L597.505 231.406C597.491 229.961 596.844 228.579 595.702 227.557C594.56 226.535 593.016 225.956 591.401 225.944C589.792 225.971 588.257 226.556 587.119 227.574C585.981 228.593 585.328 229.966 585.297 231.406Z" fill="#3F3D56"/>
<path d="M362.454 367.194C360.068 376.72 354.352 385.318 346.137 391.74C345.535 392.206 344.932 392.658 344.306 393.102C342.784 393.226 341.273 393.352 339.773 393.481C338.528 393.583 337.299 393.692 336.078 393.794L335.858 393.816L335.704 392.621L335.085 387.785C332.686 384.279 331.198 380.335 330.733 376.245C330.269 372.155 330.838 368.023 332.399 364.157C334.548 358.971 338.438 354.39 342.263 349.845C347.545 343.566 352.68 337.361 352.867 329.706C355.466 332.682 357.627 335.945 359.296 339.415C357.721 340.078 356.306 341.011 355.13 342.16C354.796 342.488 354.462 342.947 354.69 343.34C354.885 343.675 355.374 343.756 355.797 343.799C356.814 343.894 357.84 343.989 358.857 344.083C359.671 344.163 360.485 344.236 361.298 344.316C362.283 347.209 362.951 350.18 363.292 353.188C363.841 357.867 363.558 362.594 362.454 367.194Z" fill="#3F3D56"/>
<path d="M389.473 348.104C384.672 351.229 381.864 355.723 379.683 360.676C377.447 361.316 375.437 362.465 373.848 364.011C373.514 364.339 373.18 364.798 373.408 365.191C373.604 365.526 374.092 365.607 374.515 365.65C375.532 365.745 376.558 365.84 377.575 365.934C375.394 371.79 373.392 377.85 369.534 382.796C366.969 386.061 363.625 388.775 359.744 390.742C358.686 391.282 357.594 391.766 356.472 392.192C352.338 392.476 348.283 392.779 344.306 393.102C342.784 393.226 341.273 393.352 339.773 393.481C338.528 393.583 337.299 393.692 336.078 393.794C336.07 393.393 336.07 392.993 336.078 392.592C336.335 381.921 340.722 371.66 348.489 363.56C348.855 363.181 349.229 362.81 349.612 362.438C353.547 358.677 358.174 355.548 363.292 353.188C371.357 349.435 380.396 347.68 389.473 348.104Z" fill="#11B5E4"/>
<path d="M341.181 389.744L340.245 392.221L339.773 393.481C338.528 393.583 337.299 393.692 336.078 393.794L335.858 393.816C334.507 393.939 333.164 394.063 331.822 394.187C331.472 393.823 331.122 393.451 330.78 393.073C322.285 383.866 318.208 372.025 319.438 360.136C320.669 348.248 327.108 337.278 337.347 329.625C336.273 334.658 337.527 339.48 339.586 344.265C339.366 344.346 339.154 344.426 338.951 344.513C337.375 345.177 335.96 346.11 334.784 347.259C334.45 347.587 334.117 348.046 334.344 348.439C334.54 348.774 335.028 348.854 335.451 348.898C336.469 348.992 337.494 349.087 338.511 349.182C339.325 349.262 340.139 349.335 340.953 349.415C341.335 349.451 341.718 349.488 342.1 349.524C342.157 349.633 342.206 349.735 342.263 349.845C344.582 354.346 347.081 358.869 348.489 363.56C348.842 364.736 349.119 365.931 349.319 367.136C349.946 371.209 349.539 375.357 348.131 379.271C346.722 383.184 344.346 386.764 341.181 389.744Z" fill="#11B5E4"/>
<path d="M423.099 284.104C416.093 271.873 405.239 261.582 392.473 254.02C379.666 246.468 364.97 241.869 349.696 240.633C347.694 240.47 345.687 240.374 343.674 240.347C341.297 240.315 305.534 249.547 293.553 257.086C281.579 264.533 271.729 274.394 264.798 285.876C257.879 297.419 254.476 310.39 254.93 323.483C255.523 336.656 259.625 349.51 266.895 360.976C274.066 372.404 284.248 382.092 296.555 389.197C309.037 396.325 321.576 415.225 336.314 415.892C351.163 416.564 368.097 398.736 381.64 393.322C395.183 387.864 406.891 379.325 415.598 368.555C424.058 358 429.531 345.767 431.548 332.903C433.642 319.732 432.666 306.149 427.64 293.56C426.351 290.325 424.834 287.167 423.099 284.104C421.651 281.551 417.406 280.61 414.748 282.144C413.379 282.898 412.387 284.096 411.98 285.488C411.572 286.88 411.779 288.359 412.558 289.618C413.409 291.117 414.2 292.641 414.931 294.19L414.316 292.885C417.083 298.84 418.964 305.093 419.912 311.486L419.694 310.034C420.702 316.969 420.684 323.994 419.64 330.925L419.858 329.473C418.803 336.404 416.736 343.18 413.71 349.63L414.325 348.325C412.769 351.615 410.954 354.803 408.896 357.865C407.852 359.412 406.745 360.922 405.575 362.396C405.061 363.043 404.531 363.679 403.997 364.313C403.3 365.14 404.946 363.233 404.227 364.044C404.104 364.182 403.982 364.321 403.859 364.458C403.489 364.872 403.114 365.282 402.734 365.688C400.197 368.397 397.428 370.926 394.452 373.251C393.711 373.83 392.958 374.396 392.192 374.949C391.81 375.224 391.433 375.511 391.035 375.768C391.051 375.758 392.321 374.894 391.569 375.396C391.332 375.553 391.098 375.713 390.861 375.87C389.282 376.917 387.662 377.911 385.999 378.851C382.171 381.009 378.155 382.888 373.991 384.469L375.449 383.918C368.264 386.625 360.713 388.474 352.99 389.418L354.612 389.223C346.893 390.157 339.069 390.169 331.346 389.26L332.968 389.455C325.949 388.612 319.083 386.95 312.545 384.514L314.003 385.064C310.216 383.633 306.565 381.93 303.085 379.972C301.362 379.001 299.685 377.97 298.052 376.879C297.819 376.723 297.588 376.565 297.356 376.409C296.611 375.905 297.892 376.78 297.902 376.786C297.469 376.508 297.052 376.21 296.653 375.894C295.864 375.319 295.088 374.731 294.324 374.13C291.267 371.721 288.413 369.114 285.784 366.329C285.126 365.633 284.482 364.927 283.852 364.21C283.579 363.899 283.082 363.27 284.181 364.595C284.037 364.42 283.887 364.249 283.74 364.076C283.39 363.66 283.044 363.24 282.702 362.817C281.507 361.337 280.371 359.821 279.294 358.268C276.86 354.753 274.737 351.074 272.942 347.264L273.557 348.569C270.62 342.315 268.612 335.743 267.583 329.022L267.801 330.474C266.873 324.279 266.86 318.001 267.762 311.802L267.544 313.254C268.468 307.252 270.273 301.384 272.911 295.803L272.295 297.108C273.955 293.615 275.913 290.241 278.151 287.016C279.272 285.402 280.459 283.828 281.714 282.293C281.999 281.944 282.287 281.597 282.578 281.253C282.842 280.941 283.567 280.165 282.33 281.536C282.451 281.401 282.568 281.263 282.687 281.128C283.376 280.347 284.081 279.579 284.803 278.822C287.536 275.959 290.496 273.277 293.66 270.795C294.46 270.168 295.272 269.554 296.097 268.953C296.472 268.68 296.85 268.41 297.229 268.143C297.381 268.036 297.535 267.931 297.686 267.823C296.061 268.981 297.235 268.138 297.604 267.891C299.304 266.751 301.05 265.668 302.841 264.642C306.823 262.363 311.012 260.387 315.363 258.736L313.905 259.287C320.22 256.913 348.2 251.312 353.289 251.923L351.667 251.728C359.147 252.663 366.457 254.47 373.412 257.105L371.954 256.554C375.479 257.894 378.904 259.434 382.209 261.164C383.86 262.031 385.479 262.944 387.065 263.905C387.816 264.36 388.558 264.825 389.293 265.3C389.661 265.537 390.026 265.777 390.389 266.02C390.591 266.155 390.791 266.291 390.992 266.426C391.838 266.994 389.827 265.605 390.714 266.232C393.681 268.319 396.499 270.57 399.152 272.972C400.454 274.159 401.712 275.384 402.925 276.646C403.547 277.294 404.157 277.952 404.753 278.619C405.05 278.95 406.06 280.149 404.822 278.68C405.125 279.039 405.43 279.396 405.729 279.757C408.301 282.873 410.585 286.171 412.558 289.618C414.018 292.165 418.244 293.115 420.909 291.578C422.279 290.823 423.271 289.626 423.679 288.234C424.087 286.841 423.879 285.362 423.099 284.104Z" fill="#3F3D56"/>
<path d="M351.979 373.251C351.348 373.277 350.725 373.129 350.192 372.827C349.659 372.525 349.243 372.084 348.999 371.563C348.756 371.042 348.697 370.467 348.832 369.915C348.966 369.364 349.286 368.863 349.749 368.479C349.827 368.203 349.882 368.005 349.96 367.729C349.932 367.669 349.904 367.609 349.876 367.549C347.044 361.506 328.973 378.353 328.192 384.033C327.848 386.544 327.993 389.089 328.621 391.555C322.767 380.128 319.728 367.707 319.708 355.136C319.707 351.981 319.903 348.829 320.295 345.694C320.619 343.124 321.068 340.572 321.643 338.038C324.78 324.292 331.516 311.407 341.298 300.443C346.892 300.722 351.795 299.96 352.268 290.257C352.352 288.531 353.783 287.036 354.098 285.336C353.564 285.399 353.021 285.438 352.487 285.469C352.321 285.477 352.146 285.485 351.979 285.493L351.917 285.495C351.33 285.519 350.748 285.39 350.241 285.124C349.734 284.859 349.323 284.468 349.059 283.998C348.794 283.528 348.687 283 348.75 282.478C348.813 281.955 349.043 281.46 349.414 281.051C349.644 280.797 349.875 280.543 350.106 280.29C350.456 279.898 350.815 279.514 351.165 279.122C351.206 279.085 351.244 279.046 351.279 279.005C351.682 278.558 352.084 278.119 352.487 277.673C351.752 276.651 350.763 275.796 349.598 275.173C345.562 273.057 339.994 274.523 337.078 277.79C334.154 281.058 333.602 285.641 334.618 289.724C335.617 293.197 337.269 296.494 339.503 299.471C339.284 299.722 339.057 299.965 338.838 300.216C334.837 304.82 331.35 309.765 328.426 314.978C329.253 309.196 319.139 288.314 315.228 283.891C310.529 278.579 300.895 280.897 300.068 287.632C300.059 287.697 300.052 287.762 300.044 287.828C300.625 288.121 301.194 288.432 301.75 288.762C302.449 289.18 302.991 289.777 303.304 290.475C303.617 291.173 303.688 291.94 303.506 292.674C303.324 293.409 302.898 294.077 302.285 294.592C301.672 295.106 300.899 295.443 300.068 295.557L299.983 295.569C292.206 305.507 317.136 331.371 323.376 325.564C320.439 333.013 318.597 340.773 317.896 348.648C317.499 353.293 317.522 357.96 317.966 362.603L317.939 362.438C316.553 352.327 292.767 337.294 285.821 338.546C281.819 339.267 277.878 339.103 278.486 342.715C278.495 342.773 278.505 342.831 278.515 342.888C279.593 343.281 280.643 343.734 281.658 344.244C282.239 344.537 282.808 344.849 283.364 345.178C284.063 345.596 284.605 346.193 284.918 346.891C285.232 347.59 285.302 348.356 285.12 349.091C284.938 349.825 284.513 350.494 283.899 351.008C283.286 351.523 282.513 351.859 281.682 351.974L281.597 351.986C281.536 351.993 281.483 352.001 281.422 352.009C277.882 362.91 304.134 380.502 320.093 374.905H320.102C321.684 381.056 323.975 387.043 326.94 392.77H351.366C351.454 392.527 351.533 392.276 351.612 392.033C349.351 392.161 347.081 392.04 344.853 391.673C346.665 389.683 348.477 387.677 350.29 385.687C350.33 385.649 350.368 385.61 350.403 385.569C351.323 384.55 352.251 383.54 353.17 382.521L353.171 382.52C353.219 379.397 352.819 376.282 351.979 373.251L351.979 373.251ZM324.007 324.005L324.02 323.989L324.007 324.02V324.005ZM318.596 367.657L318.386 367.234C318.395 366.928 318.395 366.623 318.386 366.309C318.386 366.223 318.368 366.137 318.368 366.051C318.447 366.591 318.517 367.132 318.605 367.673L318.596 367.657Z" fill="#3F3D56"/>
<path d="M77.5162 327.761C82.4604 327.761 86.4684 324.174 86.4684 319.749C86.4684 315.324 82.4604 311.737 77.5162 311.737C72.5721 311.737 68.5641 315.324 68.5641 319.749C68.5641 324.174 72.5721 327.761 77.5162 327.761Z" fill="#3F3D56"/>
<path d="M588.601 238.901C593.545 238.901 597.553 235.314 597.553 230.889C597.553 226.465 593.545 222.877 588.601 222.877C583.657 222.877 579.649 226.465 579.649 230.889C579.649 235.314 583.657 238.901 588.601 238.901Z" fill="#3F3D56"/>
<path d="M215.053 305.182C215.048 307.228 214.164 309.195 212.583 310.674C211.003 312.153 208.848 313.032 206.564 313.129C204.28 313.226 202.041 312.533 200.312 311.194C198.583 309.855 197.495 307.972 197.274 305.935C197.053 303.898 197.715 301.863 199.123 300.251C200.532 298.638 202.579 297.573 204.842 297.274C207.104 296.975 209.408 297.466 211.277 298.645C213.146 299.824 214.437 301.601 214.882 303.609C214.997 304.127 215.055 304.654 215.053 305.182Z" fill="#3F3D56"/>
<path d="M623.227 305.921C623.221 307.968 622.337 309.934 620.757 311.413C619.177 312.892 617.021 313.771 614.737 313.868C612.453 313.965 610.215 313.272 608.486 311.933C606.756 310.594 605.669 308.711 605.447 306.674C605.226 304.637 605.888 302.602 607.297 300.99C608.705 299.378 610.753 298.312 613.015 298.013C615.277 297.714 617.581 298.205 619.45 299.384C621.319 300.563 622.61 302.34 623.056 304.348C623.171 304.866 623.228 305.393 623.227 305.921Z" fill="#3F3D56"/>
<path d="M189.825 230.889C189.819 232.936 188.935 234.902 187.355 236.381C185.775 237.861 183.619 238.74 181.335 238.836C179.051 238.933 176.813 238.24 175.084 236.901C173.354 235.562 172.267 233.679 172.045 231.642C171.824 229.605 172.486 227.57 173.895 225.958C175.303 224.346 177.351 223.28 179.613 222.981C181.875 222.682 184.179 223.173 186.048 224.353C187.917 225.532 189.208 227.309 189.654 229.316C189.769 229.834 189.826 230.361 189.825 230.889Z" fill="#3F3D56"/>
<path d="M487.686 330.674C492.63 330.674 496.638 327.087 496.638 322.662C496.638 318.237 492.63 314.65 487.686 314.65C482.742 314.65 478.734 318.237 478.734 322.662C478.734 327.087 482.742 330.674 487.686 330.674Z" fill="#3F3D56"/>
<path d="M149.192 130.36C147.224 130.36 145.412 130.036 143.756 129.388C142.1 128.74 140.66 127.84 139.436 126.688C138.212 125.512 137.264 124.144 136.592 122.584C135.92 121 135.584 119.272 135.584 117.4C135.584 115.528 135.92 113.812 136.592 112.252C137.264 110.668 138.212 109.3 139.436 108.148C140.66 106.972 142.1 106.06 143.756 105.412C145.412 104.764 147.212 104.44 149.156 104.44C151.124 104.44 152.924 104.764 154.556 105.412C156.212 106.06 157.652 106.972 158.876 108.148C160.1 109.3 161.048 110.668 161.72 112.252C162.392 113.812 162.728 115.528 162.728 117.4C162.728 119.272 162.392 121 161.72 122.584C161.048 124.168 160.1 125.536 158.876 126.688C157.652 127.84 156.212 128.74 154.556 129.388C152.924 130.036 151.136 130.36 149.192 130.36ZM149.156 126.256C150.428 126.256 151.604 126.04 152.684 125.608C153.764 125.176 154.7 124.564 155.492 123.772C156.284 122.956 156.896 122.02 157.328 120.964C157.784 119.884 158.012 118.696 158.012 117.4C158.012 116.104 157.784 114.928 157.328 113.872C156.896 112.792 156.284 111.856 155.492 111.064C154.7 110.248 153.764 109.624 152.684 109.192C151.604 108.76 150.428 108.544 149.156 108.544C147.884 108.544 146.708 108.76 145.628 109.192C144.572 109.624 143.636 110.248 142.82 111.064C142.028 111.856 141.404 112.792 140.948 113.872C140.516 114.928 140.3 116.104 140.3 117.4C140.3 118.672 140.516 119.848 140.948 120.928C141.404 122.008 142.028 122.956 142.82 123.772C143.612 124.564 144.548 125.176 145.628 125.608C146.708 126.04 147.884 126.256 149.156 126.256ZM175.897 130.252C173.929 130.252 172.177 129.832 170.641 128.992C169.105 128.128 167.893 126.952 167.005 125.464C166.117 123.976 165.673 122.284 165.673 120.388C165.673 118.468 166.117 116.776 167.005 115.312C167.893 113.824 169.105 112.66 170.641 111.82C172.177 110.98 173.929 110.56 175.897 110.56C177.889 110.56 179.653 110.98 181.189 111.82C182.749 112.66 183.961 113.812 184.825 115.276C185.713 116.74 186.157 118.444 186.157 120.388C186.157 122.284 185.713 123.976 184.825 125.464C183.961 126.952 182.749 128.128 181.189 128.992C179.653 129.832 177.889 130.252 175.897 130.252ZM175.897 126.4C177.001 126.4 177.985 126.16 178.849 125.68C179.713 125.2 180.385 124.504 180.865 123.592C181.369 122.68 181.621 121.612 181.621 120.388C181.621 119.14 181.369 118.072 180.865 117.184C180.385 116.272 179.713 115.576 178.849 115.096C177.985 114.616 177.013 114.376 175.933 114.376C174.829 114.376 173.845 114.616 172.981 115.096C172.141 115.576 171.469 116.272 170.965 117.184C170.461 118.072 170.209 119.14 170.209 120.388C170.209 121.612 170.461 122.68 170.965 123.592C171.469 124.504 172.141 125.2 172.981 125.68C173.845 126.16 174.817 126.4 175.897 126.4ZM201.116 130.252C199.556 130.252 198.128 129.892 196.832 129.172C195.56 128.452 194.54 127.372 193.772 125.932C193.028 124.468 192.656 122.62 192.656 120.388C192.656 118.132 193.016 116.284 193.736 114.844C194.48 113.404 195.488 112.336 196.76 111.64C198.032 110.92 199.484 110.56 201.116 110.56C203.012 110.56 204.68 110.968 206.12 111.784C207.584 112.6 208.736 113.74 209.576 115.204C210.44 116.668 210.872 118.396 210.872 120.388C210.872 122.38 210.44 124.12 209.576 125.608C208.736 127.072 207.584 128.212 206.12 129.028C204.68 129.844 203.012 130.252 201.116 130.252ZM190.46 136.984V110.776H194.744V115.312L194.6 120.424L194.96 125.536V136.984H190.46ZM200.612 126.4C201.692 126.4 202.652 126.16 203.492 125.68C204.356 125.2 205.04 124.504 205.544 123.592C206.048 122.68 206.3 121.612 206.3 120.388C206.3 119.14 206.048 118.072 205.544 117.184C205.04 116.272 204.356 115.576 203.492 115.096C202.652 114.616 201.692 114.376 200.612 114.376C199.532 114.376 198.56 114.616 197.696 115.096C196.832 115.576 196.148 116.272 195.644 117.184C195.14 118.072 194.888 119.14 194.888 120.388C194.888 121.612 195.14 122.68 195.644 123.592C196.148 124.504 196.832 125.2 197.696 125.68C198.56 126.16 199.532 126.4 200.612 126.4ZM221.08 130.252C219.472 130.252 217.924 130.048 216.436 129.64C214.972 129.208 213.808 128.692 212.944 128.092L214.672 124.672C215.536 125.224 216.568 125.68 217.768 126.04C218.968 126.4 220.168 126.58 221.368 126.58C222.784 126.58 223.804 126.388 224.428 126.004C225.076 125.62 225.4 125.104 225.4 124.456C225.4 123.928 225.184 123.532 224.752 123.268C224.32 122.98 223.756 122.764 223.06 122.62C222.364 122.476 221.584 122.344 220.72 122.224C219.88 122.104 219.028 121.948 218.164 121.756C217.324 121.54 216.556 121.24 215.86 120.856C215.164 120.448 214.6 119.908 214.168 119.236C213.736 118.564 213.52 117.676 213.52 116.572C213.52 115.348 213.868 114.292 214.563 113.404C215.26 112.492 216.232 111.796 217.479 111.316C218.752 110.812 220.252 110.56 221.98 110.56C223.276 110.56 224.584 110.704 225.904 110.992C227.224 111.28 228.316 111.688 229.18 112.216L227.452 115.636C226.54 115.084 225.616 114.712 224.68 114.52C223.768 114.304 222.856 114.196 221.944 114.196C220.576 114.196 219.556 114.4 218.884 114.808C218.236 115.216 217.912 115.732 217.912 116.356C217.912 116.932 218.128 117.364 218.56 117.652C218.992 117.94 219.556 118.168 220.252 118.336C220.948 118.504 221.716 118.648 222.556 118.768C223.42 118.864 224.272 119.02 225.112 119.236C225.952 119.452 226.72 119.752 227.416 120.136C228.136 120.496 228.712 121.012 229.144 121.684C229.576 122.356 229.792 123.232 229.792 124.312C229.792 125.512 229.432 126.556 228.712 127.444C228.016 128.332 227.02 129.028 225.724 129.532C224.428 130.012 222.88 130.252 221.08 130.252ZM235.107 130.252C234.291 130.252 233.595 129.976 233.019 129.424C232.443 128.848 232.155 128.128 232.155 127.264C232.155 126.352 232.443 125.632 233.019 125.104C233.595 124.552 234.291 124.276 235.107 124.276C235.923 124.276 236.619 124.552 237.195 125.104C237.771 125.632 238.059 126.352 238.059 127.264C238.059 128.128 237.771 128.848 237.195 129.424C236.619 129.976 235.923 130.252 235.107 130.252ZM243.896 130.252C243.08 130.252 242.384 129.976 241.808 129.424C241.232 128.848 240.944 128.128 240.944 127.264C240.944 126.352 241.232 125.632 241.808 125.104C242.384 124.552 243.08 124.276 243.896 124.276C244.712 124.276 245.408 124.552 245.984 125.104C246.56 125.632 246.848 126.352 246.848 127.264C246.848 128.128 246.56 128.848 245.984 129.424C245.408 129.976 244.712 130.252 243.896 130.252ZM252.685 130.252C251.869 130.252 251.173 129.976 250.597 129.424C250.021 128.848 249.733 128.128 249.733 127.264C249.733 126.352 250.021 125.632 250.597 125.104C251.173 124.552 251.869 124.276 252.685 124.276C253.501 124.276 254.197 124.552 254.773 125.104C255.349 125.632 255.637 126.352 255.637 127.264C255.637 128.128 255.349 128.848 254.773 129.424C254.197 129.976 253.501 130.252 252.685 130.252ZM137.384 163V137.8H147.752C149.984 137.8 151.892 138.16 153.476 138.88C155.084 139.6 156.32 140.632 157.184 141.976C158.048 143.32 158.48 144.916 158.48 146.764C158.48 148.612 158.048 150.208 157.184 151.552C156.32 152.896 155.084 153.928 153.476 154.648C151.892 155.368 149.984 155.728 147.752 155.728H139.976L142.064 153.532V163H137.384ZM142.064 154.036L139.976 151.768H147.536C149.6 151.768 151.148 151.336 152.18 150.472C153.236 149.584 153.764 148.348 153.764 146.764C153.764 145.156 153.236 143.92 152.18 143.056C151.148 142.192 149.6 141.76 147.536 141.76H139.976L142.064 139.456V154.036ZM174.39 163V159.112L174.138 158.284V151.48C174.138 150.16 173.742 149.14 172.95 148.42C172.158 147.676 170.958 147.304 169.35 147.304C168.27 147.304 167.202 147.472 166.146 147.808C165.114 148.144 164.238 148.612 163.518 149.212L161.754 145.936C162.786 145.144 164.01 144.556 165.426 144.172C166.866 143.764 168.354 143.56 169.89 143.56C172.674 143.56 174.822 144.232 176.334 145.576C177.87 146.896 178.638 148.948 178.638 151.732V163H174.39ZM168.342 163.252C166.902 163.252 165.642 163.012 164.562 162.532C163.482 162.028 162.642 161.344 162.042 160.48C161.466 159.592 161.178 158.596 161.178 157.492C161.178 156.412 161.43 155.44 161.934 154.576C162.462 153.712 163.314 153.028 164.49 152.524C165.666 152.02 167.226 151.768 169.17 151.768H174.75V154.756H169.494C167.958 154.756 166.926 155.008 166.398 155.512C165.87 155.992 165.606 156.592 165.606 157.312C165.606 158.128 165.93 158.776 166.578 159.256C167.226 159.736 168.126 159.976 169.278 159.976C170.382 159.976 171.366 159.724 172.23 159.22C173.118 158.716 173.754 157.972 174.138 156.988L174.894 159.688C174.462 160.816 173.682 161.692 172.554 162.316C171.45 162.94 170.046 163.252 168.342 163.252ZM167.262 141.148L172.122 136.216H177.414L171.15 141.148H167.262ZM193.16 170.236C191.384 170.236 189.644 169.996 187.94 169.516C186.26 169.06 184.88 168.388 183.8 167.5L185.816 164.116C186.656 164.812 187.712 165.364 188.984 165.772C190.28 166.204 191.588 166.42 192.908 166.42C195.02 166.42 196.568 165.928 197.552 164.944C198.536 163.984 199.028 162.532 199.028 160.588V157.168L199.388 152.812L199.244 148.456V143.776H203.528V160.084C203.528 163.564 202.64 166.12 200.864 167.752C199.088 169.408 196.52 170.236 193.16 170.236ZM192.584 162.136C190.76 162.136 189.104 161.752 187.616 160.984C186.152 160.192 184.988 159.1 184.124 157.708C183.284 156.316 182.864 154.684 182.864 152.812C182.864 150.964 183.284 149.344 184.124 147.952C184.988 146.56 186.152 145.48 187.616 144.712C189.104 143.944 190.76 143.56 192.584 143.56C194.216 143.56 195.68 143.884 196.976 144.532C198.272 145.18 199.304 146.188 200.072 147.556C200.864 148.924 201.26 150.676 201.26 152.812C201.26 154.948 200.864 156.712 200.072 158.104C199.304 159.472 198.272 160.492 196.976 161.164C195.68 161.812 194.216 162.136 192.584 162.136ZM193.268 158.32C194.396 158.32 195.404 158.092 196.292 157.636C197.18 157.156 197.864 156.508 198.344 155.692C198.848 154.852 199.1 153.892 199.1 152.812C199.1 151.732 198.848 150.784 198.344 149.968C197.864 149.128 197.18 148.492 196.292 148.06C195.404 147.604 194.396 147.376 193.268 147.376C192.14 147.376 191.12 147.604 190.208 148.06C189.32 148.492 188.624 149.128 188.12 149.968C187.64 150.784 187.4 151.732 187.4 152.812C187.4 153.892 187.64 154.852 188.12 155.692C188.624 156.508 189.32 157.156 190.208 157.636C191.12 158.092 192.14 158.32 193.268 158.32ZM209.444 163V143.776H213.944V163H209.444ZM211.712 140.608C210.872 140.608 210.176 140.344 209.624 139.816C209.096 139.288 208.832 138.652 208.832 137.908C208.832 137.14 209.096 136.504 209.624 136C210.176 135.472 210.872 135.208 211.712 135.208C212.552 135.208 213.236 135.46 213.764 135.964C214.316 136.444 214.592 137.056 214.592 137.8C214.592 138.592 214.328 139.264 213.8 139.816C213.272 140.344 212.576 140.608 211.712 140.608ZM230.758 143.56C232.294 143.56 233.662 143.86 234.862 144.46C236.086 145.06 237.046 145.984 237.742 147.232C238.438 148.456 238.786 150.04 238.786 151.984V163H234.286V152.56C234.286 150.856 233.878 149.584 233.062 148.744C232.27 147.904 231.154 147.484 229.714 147.484C228.658 147.484 227.722 147.7 226.906 148.132C226.09 148.564 225.454 149.212 224.998 150.076C224.566 150.916 224.35 151.984 224.35 153.28V163H219.85V143.776H224.134V148.96L223.378 147.376C224.05 146.152 225.022 145.216 226.294 144.568C227.59 143.896 229.078 143.56 230.758 143.56ZM256.339 163V159.112L256.087 158.284V151.48C256.087 150.16 255.691 149.14 254.899 148.42C254.107 147.676 252.907 147.304 251.299 147.304C250.219 147.304 249.151 147.472 248.095 147.808C247.063 148.144 246.187 148.612 245.467 149.212L243.703 145.936C244.735 145.144 245.959 144.556 247.375 144.172C248.815 143.764 250.303 143.56 251.839 143.56C254.623 143.56 256.771 144.232 258.283 145.576C259.819 146.896 260.587 148.948 260.587 151.732V163H256.339ZM250.291 163.252C248.851 163.252 247.591 163.012 246.511 162.532C245.431 162.028 244.591 161.344 243.991 160.48C243.415 159.592 243.127 158.596 243.127 157.492C243.127 156.412 243.379 155.44 243.883 154.576C244.411 153.712 245.263 153.028 246.439 152.524C247.615 152.02 249.175 151.768 251.119 151.768H256.699V154.756H251.443C249.907 154.756 248.875 155.008 248.347 155.512C247.819 155.992 247.555 156.592 247.555 157.312C247.555 158.128 247.879 158.776 248.527 159.256C249.175 159.736 250.075 159.976 251.227 159.976C252.331 159.976 253.315 159.724 254.179 159.22C255.067 158.716 255.703 157.972 256.087 156.988L256.843 159.688C256.411 160.816 255.631 161.692 254.503 162.316C253.399 162.94 251.995 163.252 250.291 163.252ZM287.219 143.56C288.755 143.56 290.123 143.86 291.323 144.46C292.547 145.06 293.507 145.984 294.203 147.232C294.899 148.456 295.247 150.04 295.247 151.984V163H290.747V152.56C290.747 150.856 290.339 149.584 289.523 148.744C288.731 147.904 287.615 147.484 286.175 147.484C285.119 147.484 284.183 147.7 283.367 148.132C282.551 148.564 281.915 149.212 281.459 150.076C281.027 150.916 280.811 151.984 280.811 153.28V163H276.311V143.776H280.595V148.96L279.839 147.376C280.511 146.152 281.483 145.216 282.755 144.568C284.051 143.896 285.539 143.56 287.219 143.56ZM312.8 163V159.112L312.548 158.284V151.48C312.548 150.16 312.152 149.14 311.36 148.42C310.568 147.676 309.368 147.304 307.76 147.304C306.68 147.304 305.612 147.472 304.556 147.808C303.524 148.144 302.648 148.612 301.928 149.212L300.164 145.936C301.196 145.144 302.42 144.556 303.836 144.172C305.276 143.764 306.764 143.56 308.3 143.56C311.084 143.56 313.232 144.232 314.744 145.576C316.28 146.896 317.048 148.948 317.048 151.732V163H312.8ZM306.752 163.252C305.312 163.252 304.052 163.012 302.972 162.532C301.892 162.028 301.052 161.344 300.452 160.48C299.876 159.592 299.588 158.596 299.588 157.492C299.588 156.412 299.84 155.44 300.344 154.576C300.872 153.712 301.724 153.028 302.9 152.524C304.076 152.02 305.636 151.768 307.58 151.768H313.16V154.756H307.904C306.368 154.756 305.336 155.008 304.808 155.512C304.28 155.992 304.016 156.592 304.016 157.312C304.016 158.128 304.34 158.776 304.988 159.256C305.636 159.736 306.536 159.976 307.688 159.976C308.792 159.976 309.776 159.724 310.64 159.22C311.528 158.716 312.164 157.972 312.548 156.988L313.304 159.688C312.872 160.816 312.092 161.692 310.964 162.316C309.86 162.94 308.456 163.252 306.752 163.252ZM311.288 141.148C310.712 141.148 310.184 141.04 309.704 140.824C309.248 140.584 308.828 140.308 308.444 139.996C308.084 139.66 307.736 139.372 307.4 139.132C307.064 138.892 306.728 138.772 306.392 138.772C305.888 138.772 305.48 138.964 305.168 139.348C304.856 139.732 304.676 140.26 304.628 140.932H302.216C302.264 139.444 302.624 138.268 303.296 137.404C303.992 136.54 304.928 136.108 306.104 136.108C306.68 136.108 307.208 136.228 307.688 136.468C308.168 136.708 308.588 136.984 308.948 137.296C309.332 137.608 309.692 137.884 310.028 138.124C310.364 138.364 310.688 138.484 311 138.484C311.504 138.484 311.912 138.304 312.224 137.944C312.56 137.584 312.74 137.08 312.764 136.432H315.176C315.152 137.824 314.792 138.964 314.096 139.852C313.4 140.716 312.464 141.148 311.288 141.148ZM331.498 163.252C329.53 163.252 327.778 162.832 326.242 161.992C324.706 161.128 323.494 159.952 322.606 158.464C321.718 156.976 321.274 155.284 321.274 153.388C321.274 151.468 321.718 149.776 322.606 148.312C323.494 146.824 324.706 145.66 326.242 144.82C327.778 143.98 329.53 143.56 331.498 143.56C333.49 143.56 335.254 143.98 336.79 144.82C338.35 145.66 339.562 146.812 340.426 148.276C341.314 149.74 341.758 151.444 341.758 153.388C341.758 155.284 341.314 156.976 340.426 158.464C339.562 159.952 338.35 161.128 336.79 161.992C335.254 162.832 333.49 163.252 331.498 163.252ZM331.498 159.4C332.602 159.4 333.586 159.16 334.45 158.68C335.314 158.2 335.986 157.504 336.466 156.592C336.97 155.68 337.222 154.612 337.222 153.388C337.222 152.14 336.97 151.072 336.466 150.184C335.986 149.272 335.314 148.576 334.45 148.096C333.586 147.616 332.614 147.376 331.534 147.376C330.43 147.376 329.446 147.616 328.582 148.096C327.742 148.576 327.07 149.272 326.566 150.184C326.062 151.072 325.81 152.14 325.81 153.388C325.81 154.612 326.062 155.68 326.566 156.592C327.07 157.504 327.742 158.2 328.582 158.68C329.446 159.16 330.418 159.4 331.498 159.4ZM365.047 163.252C362.911 163.252 361.039 162.832 359.431 161.992C357.847 161.128 356.611 159.952 355.723 158.464C354.859 156.976 354.427 155.284 354.427 153.388C354.427 151.468 354.847 149.776 355.687 148.312C356.551 146.824 357.727 145.66 359.215 144.82C360.727 143.98 362.443 143.56 364.363 143.56C366.235 143.56 367.903 143.968 369.367 144.784C370.831 145.6 371.983 146.752 372.823 148.24C373.663 149.728 374.083 151.48 374.083 153.496C374.083 153.688 374.071 153.904 374.047 154.144C374.047 154.384 374.035 154.612 374.011 154.828H357.991V151.84H371.635L369.871 152.776C369.895 151.672 369.667 150.7 369.187 149.86C368.707 149.02 368.047 148.36 367.207 147.88C366.391 147.4 365.443 147.16 364.363 147.16C363.259 147.16 362.287 147.4 361.447 147.88C360.631 148.36 359.983 149.032 359.503 149.896C359.047 150.736 358.819 151.732 358.819 152.884V153.604C358.819 154.756 359.083 155.776 359.611 156.664C360.139 157.552 360.883 158.236 361.843 158.716C362.803 159.196 363.907 159.436 365.155 159.436C366.235 159.436 367.207 159.268 368.071 158.932C368.935 158.596 369.703 158.068 370.375 157.348L372.787 160.12C371.923 161.128 370.831 161.908 369.511 162.46C368.215 162.988 366.727 163.252 365.047 163.252ZM389.313 143.56C390.849 143.56 392.217 143.86 393.417 144.46C394.641 145.06 395.601 145.984 396.297 147.232C396.993 148.456 397.341 150.04 397.341 151.984V163H392.841V152.56C392.841 150.856 392.433 149.584 391.617 148.744C390.825 147.904 389.709 147.484 388.269 147.484C387.213 147.484 386.277 147.7 385.461 148.132C384.645 148.564 384.009 149.212 383.553 150.076C383.121 150.916 382.905 151.984 382.905 153.28V163H378.405V143.776H382.689V148.96L381.933 147.376C382.605 146.152 383.577 145.216 384.849 144.568C386.145 143.896 387.633 143.56 389.313 143.56ZM411.905 163.252C409.889 163.252 408.089 162.832 406.505 161.992C404.945 161.128 403.721 159.952 402.833 158.464C401.945 156.976 401.501 155.284 401.501 153.388C401.501 151.468 401.945 149.776 402.833 148.312C403.721 146.824 404.945 145.66 406.505 144.82C408.089 143.98 409.889 143.56 411.905 143.56C413.777 143.56 415.421 143.944 416.837 144.712C418.277 145.456 419.369 146.56 420.113 148.024L416.657 150.04C416.081 149.128 415.373 148.456 414.533 148.024C413.717 147.592 412.829 147.376 411.869 147.376C410.765 147.376 409.769 147.616 408.881 148.096C407.993 148.576 407.297 149.272 406.793 150.184C406.289 151.072 406.037 152.14 406.037 153.388C406.037 154.636 406.289 155.716 406.793 156.628C407.297 157.516 407.993 158.2 408.881 158.68C409.769 159.16 410.765 159.4 411.869 159.4C412.829 159.4 413.717 159.184 414.533 158.752C415.373 158.32 416.081 157.648 416.657 156.736L420.113 158.752C419.369 160.192 418.277 161.308 416.837 162.1C415.421 162.868 413.777 163.252 411.905 163.252ZM432.362 163.252C430.394 163.252 428.642 162.832 427.106 161.992C425.57 161.128 424.358 159.952 423.47 158.464C422.582 156.976 422.138 155.284 422.138 153.388C422.138 151.468 422.582 149.776 423.47 148.312C424.358 146.824 425.57 145.66 427.106 144.82C428.642 143.98 430.394 143.56 432.362 143.56C434.354 143.56 436.118 143.98 437.654 144.82C439.214 145.66 440.426 146.812 441.29 148.276C442.178 149.74 442.622 151.444 442.622 153.388C442.622 155.284 442.178 156.976 441.29 158.464C440.426 159.952 439.214 161.128 437.654 161.992C436.118 162.832 434.354 163.252 432.362 163.252ZM432.362 159.4C433.466 159.4 434.45 159.16 435.314 158.68C436.178 158.2 436.85 157.504 437.33 156.592C437.834 155.68 438.086 154.612 438.086 153.388C438.086 152.14 437.834 151.072 437.33 150.184C436.85 149.272 436.178 148.576 435.314 148.096C434.45 147.616 433.478 147.376 432.398 147.376C431.294 147.376 430.31 147.616 429.446 148.096C428.606 148.576 427.934 149.272 427.43 150.184C426.926 151.072 426.674 152.14 426.674 153.388C426.674 154.612 426.926 155.68 427.43 156.592C427.934 157.504 428.606 158.2 429.446 158.68C430.31 159.16 431.282 159.4 432.362 159.4ZM457.833 143.56C459.369 143.56 460.737 143.86 461.937 144.46C463.161 145.06 464.121 145.984 464.817 147.232C465.513 148.456 465.861 150.04 465.861 151.984V163H461.361V152.56C461.361 150.856 460.953 149.584 460.137 148.744C459.345 147.904 458.229 147.484 456.789 147.484C455.733 147.484 454.797 147.7 453.981 148.132C453.165 148.564 452.529 149.212 452.073 150.076C451.641 150.916 451.425 151.984 451.425 153.28V163H446.925V143.776H451.209V148.96L450.453 147.376C451.125 146.152 452.097 145.216 453.369 144.568C454.665 143.896 456.153 143.56 457.833 143.56ZM478.805 163.252C476.693 163.252 475.061 162.712 473.909 161.632C472.757 160.528 472.181 158.908 472.181 156.772V139.528H476.681V156.664C476.681 157.576 476.909 158.284 477.365 158.788C477.845 159.292 478.505 159.544 479.345 159.544C480.353 159.544 481.193 159.28 481.865 158.752L483.125 161.956C482.597 162.388 481.949 162.712 481.181 162.928C480.413 163.144 479.621 163.252 478.805 163.252ZM469.013 147.52V143.92H481.829V147.52H469.013ZM486.827 163V143.776H491.111V149.068L490.607 147.52C491.183 146.224 492.083 145.24 493.307 144.568C494.555 143.896 496.103 143.56 497.951 143.56V147.844C497.759 147.796 497.579 147.772 497.411 147.772C497.243 147.748 497.075 147.736 496.907 147.736C495.203 147.736 493.847 148.24 492.839 149.248C491.831 150.232 491.327 151.708 491.327 153.676V163H486.827ZM512.241 163V159.112L511.989 158.284V151.48C511.989 150.16 511.593 149.14 510.801 148.42C510.009 147.676 508.809 147.304 507.201 147.304C506.121 147.304 505.053 147.472 503.997 147.808C502.965 148.144 502.089 148.612 501.369 149.212L499.605 145.936C500.637 145.144 501.861 144.556 503.277 144.172C504.717 143.764 506.205 143.56 507.741 143.56C510.525 143.56 512.673 144.232 514.185 145.576C515.721 146.896 516.489 148.948 516.489 151.732V163H512.241ZM506.193 163.252C504.753 163.252 503.493 163.012 502.413 162.532C501.333 162.028 500.493 161.344 499.893 160.48C499.317 159.592 499.029 158.596 499.029 157.492C499.029 156.412 499.281 155.44 499.785 154.576C500.313 153.712 501.165 153.028 502.341 152.524C503.517 152.02 505.077 151.768 507.021 151.768H512.601V154.756H507.345C505.809 154.756 504.777 155.008 504.249 155.512C503.721 155.992 503.457 156.592 503.457 157.312C503.457 158.128 503.781 158.776 504.429 159.256C505.077 159.736 505.977 159.976 507.129 159.976C508.233 159.976 509.217 159.724 510.081 159.22C510.969 158.716 511.605 157.972 511.989 156.988L512.745 159.688C512.313 160.816 511.533 161.692 510.405 162.316C509.301 162.94 507.897 163.252 506.193 163.252ZM530.436 163.252C528.588 163.252 526.92 162.844 525.432 162.028C523.968 161.188 522.816 160.036 521.976 158.572C521.136 157.108 520.716 155.38 520.716 153.388C520.716 151.396 521.136 149.668 521.976 148.204C522.816 146.74 523.968 145.6 525.432 144.784C526.92 143.968 528.588 143.56 530.436 143.56C532.044 143.56 533.484 143.92 534.756 144.64C536.028 145.336 537.036 146.404 537.78 147.844C538.524 149.284 538.896 151.132 538.896 153.388C538.896 155.62 538.536 157.468 537.816 158.932C537.096 160.372 536.1 161.452 534.828 162.172C533.556 162.892 532.092 163.252 530.436 163.252ZM530.976 159.4C532.056 159.4 533.016 159.16 533.856 158.68C534.72 158.2 535.404 157.504 535.908 156.592C536.436 155.68 536.7 154.612 536.7 153.388C536.7 152.14 536.436 151.072 535.908 150.184C535.404 149.272 534.72 148.576 533.856 148.096C533.016 147.616 532.056 147.376 530.976 147.376C529.896 147.376 528.924 147.616 528.06 148.096C527.22 148.576 526.536 149.272 526.008 150.184C525.504 151.072 525.252 152.14 525.252 153.388C525.252 154.612 525.504 155.68 526.008 156.592C526.536 157.504 527.22 158.2 528.06 158.68C528.924 159.16 529.896 159.4 530.976 159.4ZM536.808 163V158.464L536.988 153.352L536.628 148.24V136.288H541.092V163H536.808ZM558.859 163V159.112L558.607 158.284V151.48C558.607 150.16 558.211 149.14 557.419 148.42C556.627 147.676 555.427 147.304 553.819 147.304C552.739 147.304 551.671 147.472 550.615 147.808C549.583 148.144 548.707 148.612 547.987 149.212L546.223 145.936C547.255 145.144 548.479 144.556 549.895 144.172C551.335 143.764 552.823 143.56 554.359 143.56C557.143 143.56 559.291 144.232 560.803 145.576C562.339 146.896 563.107 148.948 563.107 151.732V163H558.859ZM552.811 163.252C551.371 163.252 550.111 163.012 549.031 162.532C547.951 162.028 547.111 161.344 546.511 160.48C545.935 159.592 545.647 158.596 545.647 157.492C545.647 156.412 545.899 155.44 546.403 154.576C546.931 153.712 547.783 153.028 548.959 152.524C550.135 152.02 551.695 151.768 553.639 151.768H559.219V154.756H553.963C552.427 154.756 551.395 155.008 550.867 155.512C550.339 155.992 550.075 156.592 550.075 157.312C550.075 158.128 550.399 158.776 551.047 159.256C551.695 159.736 552.595 159.976 553.747 159.976C554.851 159.976 555.835 159.724 556.699 159.22C557.587 158.716 558.223 157.972 558.607 156.988L559.363 159.688C558.931 160.816 558.151 161.692 557.023 162.316C555.919 162.94 554.515 163.252 552.811 163.252Z" fill="#070600"/>
</svg>
