<svg width="274" height="264" viewBox="0 0 274 264" fill="none" xmlns="http://www.w3.org/2000/svg">
<g clip-path="url(#clip0_10_526)">
<path d="M259.661 246.003C259.661 255.942 201.535 264 129.831 264C58.1265 264 0 255.942 0 246.003C0 238.967 29.1365 232.871 71.5995 229.914C89.1099 228.691 108.894 228.006 129.831 228.006C138.437 228.006 146.847 228.122 154.98 228.343C214.648 229.968 259.661 237.256 259.661 246.003Z" fill="#3F3D56"/>
<path opacity="0.1" d="M113.078 249.68C140.603 249.68 162.917 247.167 162.917 244.068C162.917 240.968 140.603 238.456 113.078 238.456C85.5535 238.456 63.2401 240.968 63.2401 244.068C63.2401 247.167 85.5535 249.68 113.078 249.68Z" fill="black"/>
<path d="M112.869 248.132C138.89 248.132 159.985 227.338 159.985 201.688C159.985 176.038 138.89 155.244 112.869 155.244C86.8475 155.244 65.753 176.038 65.753 201.688C65.753 227.338 86.8475 248.132 112.869 248.132Z" fill="#11B5E4"/>
<path d="M166.058 235.166L164.382 243.681L175.271 245.229L182.391 241.359L181.972 235.166H166.058Z" fill="#575A89"/>
<path d="M111.194 75.3217C111.194 75.3217 110.356 84.2235 108.262 84.6105C106.168 84.9975 112.869 100.479 112.869 100.479H122.92L130.878 98.5437L127.108 90.0289C127.108 90.0289 122.083 83.8364 125.852 78.805C129.621 73.7736 111.194 75.3217 111.194 75.3217Z" fill="#A0616A"/>
<path opacity="0.1" d="M111.194 75.3217C111.194 75.3217 110.356 84.2235 108.262 84.6105C106.168 84.9975 112.869 100.479 112.869 100.479H122.92L130.878 98.5437L127.108 90.0289C127.108 90.0289 122.083 83.8364 125.852 78.805C129.621 73.7736 111.194 75.3217 111.194 75.3217Z" fill="black"/>
<path d="M90.2533 143.439C90.2533 143.439 79.3642 162.791 88.1592 166.661C96.9542 170.532 99.0482 170.145 99.0482 171.306C99.0482 172.467 97.373 172.08 98.2106 174.015C99.0482 175.95 96.5354 183.691 99.0482 188.335C101.561 192.98 100.723 196.463 100.723 196.463C100.723 196.463 100.723 196.85 101.561 198.398C102.399 199.946 102.818 201.107 102.399 201.881C101.98 202.655 99.467 207.687 101.98 208.848C104.493 210.009 117.476 210.783 118.732 208.848C119.989 206.913 117.476 205.752 118.732 204.591C119.989 203.43 120.826 203.042 119.989 202.268C119.151 201.494 118.313 191.819 118.313 191.819C118.313 191.819 120.407 180.595 119.57 179.046C118.732 177.498 117.476 175.95 118.313 174.789C119.151 173.628 119.989 174.015 120.407 172.467C120.826 170.919 121.664 167.435 121.664 167.435L126.271 167.048L137.16 168.984C137.16 168.984 149.305 181.369 162.707 185.239C162.707 185.239 166.476 188.722 167.733 188.722C168.989 188.722 168.989 188.722 168.57 189.496C168.152 190.27 166.895 190.27 167.733 191.044C168.57 191.819 169.827 190.657 168.989 191.819C168.152 192.98 167.314 192.98 168.152 193.754C168.989 194.528 167.733 198.785 167.733 199.172C167.733 199.559 163.964 235.94 165.22 236.714C166.476 237.488 184.066 239.811 185.323 236.714C186.579 233.618 184.485 229.748 184.485 229.748C184.485 229.748 190.767 183.304 189.092 180.208C187.417 177.111 181.554 163.178 150.143 154.276C150.143 154.276 141.348 152.728 141.348 151.567C141.348 150.406 140.51 143.052 138.835 142.665C137.16 142.278 127.527 141.891 127.527 141.891L115.382 145.375L98.6294 142.665L90.2533 143.439Z" fill="#2F2E41"/>
<path d="M104.912 208.461L102.818 215.427C102.818 215.427 101.142 226.651 103.236 229.361C104.881 231.489 107.818 234.094 113.265 234.552C114.791 234.681 116.319 234.325 117.597 233.543C118.875 232.76 119.826 231.598 120.292 230.249C120.354 230.087 120.393 229.919 120.408 229.748C120.408 228.974 119.151 219.685 119.151 219.685L117.057 210.009L116.638 207.3L104.912 208.461Z" fill="#2F2E41"/>
<path d="M166.058 241.746C166.058 241.746 163.964 239.81 163.545 241.746C163.126 243.681 161.451 251.808 164.382 252.195C167.314 252.583 195.374 256.453 198.306 254.905C201.238 253.357 206.682 251.034 203.332 249.873C199.981 248.712 190.349 245.229 190.349 245.229C190.349 245.229 184.904 238.649 184.066 238.262C183.229 237.875 178.622 238.649 176.528 240.197C174.434 241.746 166.058 241.746 166.058 241.746Z" fill="#2F2E41"/>
<path d="M121.245 83.4494C128.416 83.4494 134.228 78.0777 134.228 71.4514C134.228 64.8251 128.416 59.4534 121.245 59.4534C114.075 59.4534 108.262 64.8251 108.262 71.4514C108.262 78.0777 114.075 83.4494 121.245 83.4494Z" fill="#A0616A"/>
<path d="M119.989 98.5437L114.963 93.5123L109.392 83.4495C109.392 83.4495 105.33 82.2884 104.493 84.2235C103.655 86.1587 88.5781 92.3512 88.5781 92.3512C88.5781 92.3512 92.3474 124.862 90.6721 127.958C88.9969 131.054 86.0652 143.439 88.5781 144.601C91.0909 145.762 102.818 144.601 106.587 146.149C110.356 147.697 121.245 147.697 124.177 145.762C127.108 143.827 127.946 142.278 130.878 143.439C133.374 144.428 139.208 110.634 140.888 100.564C141.029 99.7178 140.912 98.8523 140.549 98.065C140.185 97.2777 139.591 96.6002 138.832 96.109C135.075 93.6731 128.307 89.4754 127.108 90.029C125.433 90.8031 119.989 98.5437 119.989 98.5437Z" fill="#575A89"/>
<path d="M137.998 96.9955C138.981 97.2227 139.866 97.7226 140.533 98.428C141.2 99.1333 141.617 100.01 141.729 100.942L145.117 129.119C145.117 129.119 136.741 145.762 132.553 134.538C128.365 123.314 137.998 96.9955 137.998 96.9955Z" fill="#575A89"/>
<path d="M137.16 131.828L146.374 129.506C146.374 129.506 148.049 140.343 149.724 140.343C151.399 140.343 143.861 146.536 140.092 145.762C136.322 144.988 130.878 142.278 130.459 140.343C130.04 138.408 134.228 130.28 134.228 130.28L137.16 131.828Z" fill="#575A89"/>
<path d="M111.444 76.6272C112.327 74.8283 112.174 72.7299 112.904 70.8734C113.294 69.8793 113.929 68.9821 114.757 68.252C115.585 67.5219 116.584 66.9786 117.677 66.6646C118.77 66.3505 119.927 66.2742 121.057 66.4417C122.187 66.6091 123.26 67.0157 124.192 67.6298C125.131 68.2484 126.072 69.1176 127.218 68.9995C128.452 68.8723 129.553 67.6 130.688 68.0663C131.945 68.5831 131.605 70.6659 132.88 71.1469C133.55 71.4002 134.343 71.0103 134.729 70.4442C135.068 69.8494 135.252 69.1901 135.268 68.5183C135.444 66.8675 135.603 65.1205 134.828 63.6243C134.502 63.1171 134.218 62.588 133.978 62.0413C133.843 61.5308 133.789 61.0048 133.817 60.4799C133.81 58.5397 133.657 56.5158 132.6 54.8392C131.428 52.9787 129.26 51.789 126.999 51.2699C124.738 50.7508 122.369 50.8304 120.048 51.012C116.21 51.3122 112.208 51.9558 109.185 54.1605C108.774 54.4379 108.42 54.7813 108.14 55.1743C107.875 55.6412 107.687 56.1425 107.584 56.6611C106.93 59.1211 105.95 61.4971 104.666 63.735C104.048 64.6837 103.543 65.6914 103.16 66.7405C102.84 67.8065 102.861 69.0214 103.532 69.9377C104.079 70.6837 104.952 71.0812 105.639 71.6911C106.319 72.2954 106.637 73.4577 107.39 73.9153C108.048 74.3147 108.836 74.0328 109.507 74.4561C110.368 74.9997 110.43 76.1917 111.444 76.6272Z" fill="#2F2E41"/>
<path d="M122.083 104.349L123.339 102.027C123.339 102.027 141.767 107.058 145.536 111.703C145.536 111.703 154.75 106.284 159.776 107.058L164.801 107.832L149.305 120.605L129.621 119.056L122.083 104.349Z" fill="#F2F2F2"/>
<path d="M121.245 102.027L104.074 124.088L128.784 135.312C128.784 135.312 131.094 136.473 132.87 135.312L149.305 128.345L164.801 107.832L149.305 115.186C149.305 115.186 147.63 112.09 144.28 113.638L121.245 102.027Z" fill="#11B5E4"/>
<path d="M147.63 141.117L150.981 132.99C150.981 132.99 158.519 124.088 154.331 119.83C150.143 115.573 145.536 132.216 145.536 132.216L147.63 141.117Z" fill="#A0616A"/>
<path d="M108.973 139.82L116.284 134.343C116.284 134.343 127.638 130.138 126.326 124.513C125.015 118.889 111.994 131.149 111.994 131.149L108.973 139.82Z" fill="#A0616A"/>
<path opacity="0.1" d="M90.8815 100.672H90.4627C90.4627 100.672 83.9712 93.5122 82.7147 103.188C81.4583 112.864 77.2702 144.988 88.1593 146.149C99.0483 147.31 106.796 141.311 106.796 141.311C106.796 141.311 114.754 130.087 111.822 130.087C110.403 130.087 106.546 129.498 103.027 129.7C99.2733 129.915 95.9005 130.892 96.1166 129.893C96.5354 127.958 102.608 103.382 90.8815 100.672Z" fill="black"/>
<path d="M90.2533 93.1253L88.578 92.3512C88.578 92.3512 81.8771 93.5123 80.6207 103.188C79.3643 112.864 75.1762 144.988 86.0652 146.149C96.9542 147.31 111.613 144.601 111.613 144.601C111.613 144.601 114.544 129.893 111.613 129.893C108.681 129.893 93.6038 131.828 94.0226 129.893C94.4414 127.958 101.98 95.8345 90.2533 93.1253Z" fill="#575A89"/>
<path d="M141.557 136.666L146.176 130.125L149.096 140.924L141.557 144.02V136.666Z" fill="#575A89"/>
</g>
<defs>
<clipPath id="clip0_10_526">
<rect width="274" height="264" fill="white"/>
</clipPath>
</defs>
</svg>
