<svg width="360" height="358" viewBox="0 0 360 358" fill="none" xmlns="http://www.w3.org/2000/svg">
<g clip-path="url(#clip0_32_6)">
<path d="M356.917 178.999C356.94 199.371 353.489 219.596 346.714 238.801C346.71 238.813 346.705 238.822 346.701 238.835C346.671 238.924 346.642 239.005 346.608 239.094V239.098C345.162 243.171 343.574 247.177 341.843 251.114C337.477 261.042 332.219 270.552 326.134 279.524C324.659 281.71 323.131 283.86 321.552 285.974C319.814 288.313 318.021 290.604 316.172 292.849C314.468 294.92 312.719 296.951 310.925 298.942C308.792 301.314 306.597 303.626 304.337 305.877C299.02 311.188 293.374 316.159 287.432 320.758C286.39 321.57 285.336 322.368 284.27 323.152C281.79 324.988 279.261 326.76 276.683 328.466C271.01 332.227 265.127 335.657 259.061 338.738C258.014 339.274 256.959 339.801 255.899 340.312C251.8 342.297 247.618 344.124 243.352 345.792C242.135 346.273 240.915 346.736 239.681 347.182C239.473 347.263 239.266 347.34 239.054 347.412C224.426 352.707 209.168 356.05 193.672 357.353C192.595 357.451 191.517 357.533 190.438 357.599C189.293 357.68 188.147 357.745 187 357.795C186.093 357.842 185.19 357.876 184.278 357.901C184.092 357.91 183.901 357.918 183.715 357.918C182.49 357.956 181.26 357.981 180.027 357.99C179.505 357.995 178.984 357.999 178.458 357.999C178.213 357.999 177.967 357.999 177.721 357.995C174.164 357.982 170.635 357.866 167.132 357.646C167.06 357.642 166.988 357.633 166.916 357.633C165.661 357.548 164.411 357.459 163.164 357.348C158.726 356.974 154.336 356.436 149.994 355.733C148.994 355.575 147.996 355.405 147.001 355.223C142.682 354.457 138.419 353.535 134.213 352.455C132.962 352.136 131.719 351.803 130.482 351.455C123.347 349.464 116.343 347.024 109.512 344.151C105.591 342.501 101.744 340.718 97.9698 338.802C96.27 337.939 94.5871 337.049 92.9212 336.132C92.4677 335.886 92.0184 335.635 91.569 335.384C88.2881 333.547 85.075 331.611 81.9297 329.576C79.3525 327.913 76.8232 326.184 74.3421 324.389C74.0369 324.176 73.7359 323.955 73.435 323.734C71.5317 322.344 69.6595 320.918 67.8184 319.457C63.8126 316.272 59.9496 312.926 56.2292 309.418C53.6562 306.995 51.158 304.495 48.7348 301.918C34.6153 286.941 23.1764 269.633 14.9209 250.757C13.166 246.739 11.5552 242.647 10.0886 238.482C10.0838 238.473 10.0809 238.462 10.0801 238.452C3.38684 219.35 -0.0217336 199.247 -4.978e-05 179C-4.978e-05 103.845 46.1787 39.5075 111.628 12.9764C134.952 3.56143 159.993 -0.817363 185.118 0.125484C210.243 1.06833 234.888 7.31165 257.446 18.4484C316.384 47.6708 356.917 108.59 356.917 178.999Z" fill="#F2F2F2"/>
<path d="M257.446 18.4484V244.647H111.628V12.9764C134.952 3.56143 159.993 -0.817363 185.118 0.125484C210.243 1.06833 234.888 7.31165 257.446 18.4484Z" fill="white"/>
<path d="M146.718 121.6C150.674 115.038 155.361 108.031 162.702 105.889C171.203 103.407 179.936 108.337 187.343 113.201C209.496 127.749 230.829 143.515 251.245 160.426L251.223 160.681C235.328 159.581 219.433 158.482 203.538 157.382C192.054 156.588 180.176 155.684 170.027 150.235C166.176 148.167 162.422 145.405 158.058 145.213C152.636 144.973 147.909 148.772 144.194 152.74C122.218 176.212 115.858 212.107 91.2031 232.73C106.75 194.272 125.313 157.113 146.718 121.6Z" fill="#F2F2F2"/>
<path d="M268.112 24.2179C267.743 23.9713 267.37 23.7374 267.002 23.4993C256.341 16.6607 244.915 11.105 232.959 6.94718L230.187 45.3066H212.612V1.3476C211.506 1.11801 210.391 0.901167 209.276 0.697083V45.3066H188.391C176.893 45.3066 165.867 40.7254 157.737 32.5708C149.607 24.4162 145.039 13.3562 145.039 1.82385C143.92 2.0662 142.81 2.32552 141.699 2.60188V45.3067H124.688L122.048 8.72868C109.761 13.4551 98.0965 19.6705 87.3139 27.2366C87.1274 27.3642 86.9409 27.496 86.7586 27.6235C85.8218 28.2826 84.8977 28.9544 83.9779 29.6347V243.154H134.112L133.226 230.845L128.351 96.0856H226.52L221.645 230.845L220.759 243.154H270.338V25.6975C269.6 25.1958 268.858 24.7026 268.112 24.2179ZM141.699 84.9246H127.545L124.93 48.657H141.699V84.9246ZM209.276 84.9246H185.504V84.2061C185.504 83.8607 185.436 83.5186 185.304 83.1995C185.173 82.8805 184.979 82.5906 184.735 82.3466C184.492 82.1025 184.202 81.909 183.884 81.7773C183.566 81.6455 183.225 81.5779 182.88 81.5785H172.546C172.202 81.5784 171.861 81.6462 171.543 81.7782C171.225 81.9102 170.936 82.1038 170.693 82.3478C170.45 82.5918 170.257 82.8815 170.125 83.2004C169.994 83.5192 169.926 83.861 169.926 84.2061V84.9246H145.039V48.657H209.276V84.9246ZM212.612 84.9246V48.657H229.945L227.33 84.9246H212.612Z" fill="#3F3D56"/>
<path d="M346.714 238.8C346.71 238.812 346.706 238.821 346.702 238.834C346.672 238.923 346.642 239.004 346.608 239.093V239.097C345.163 243.171 343.575 247.176 341.844 251.113L14.9214 250.756C13.1665 246.738 11.5557 242.646 10.0891 238.481C10.0843 238.472 10.0814 238.461 10.0806 238.451L346.714 238.8Z" fill="#3F3D56"/>
<path d="M224.54 240.199H167.315V247.852H224.54V240.199Z" fill="white"/>
<path d="M91.5649 315.145C91.7684 313.347 92.0495 311.56 92.4084 309.784C94.37 300.155 98.58 291.129 104.693 283.448C108.19 283.644 111.255 283.108 111.547 276.314C111.602 275.107 112.497 274.056 112.692 272.866C112.361 272.913 112.018 272.938 111.687 272.959C111.581 272.964 111.471 272.972 111.369 272.976H111.331C110.964 272.994 110.6 272.904 110.282 272.718C109.965 272.532 109.708 272.258 109.543 271.929C109.377 271.6 109.31 271.23 109.35 270.863C109.39 270.497 109.535 270.15 109.767 269.864C109.911 269.69 110.055 269.511 110.199 269.333C110.415 269.056 110.64 268.788 110.86 268.516C110.886 268.487 110.907 268.461 110.932 268.431C111.183 268.121 111.433 267.81 111.687 267.5C111.228 266.785 110.61 266.185 109.881 265.748C107.359 264.265 103.879 265.293 102.056 267.581C100.229 269.868 99.8816 273.083 100.517 275.94C101.06 278.389 102.243 280.634 103.569 282.768C103.434 282.943 103.29 283.113 103.154 283.291C100.654 286.517 98.4748 289.98 96.6473 293.631C97.1645 289.58 90.8443 274.953 88.3984 271.854C85.4608 268.134 79.4416 269.758 78.9244 274.477C78.9202 274.52 78.9117 274.567 78.9075 274.613C79.272 274.817 79.6281 275.034 79.9757 275.268C80.4123 275.561 80.7506 275.979 80.9463 276.468C81.142 276.957 81.1859 277.493 81.0722 278.008C80.9586 278.522 80.6928 278.99 80.3095 279.35C79.9262 279.71 79.4435 279.946 78.9244 280.026L78.8693 280.034C74.0115 286.994 89.5895 305.111 93.4936 301.047C92.5121 303.813 91.7287 306.646 91.1495 309.525C90.6296 312.063 90.2672 314.632 90.0643 317.216C89.817 320.47 89.8326 323.739 90.1109 326.991C90.1032 326.953 90.0975 326.915 90.094 326.876C89.225 319.793 74.3591 309.261 70.0185 310.137C67.5175 310.643 65.0547 310.528 65.4362 313.058C65.4404 313.1 65.4489 313.139 65.4531 313.181C66.1272 313.454 66.7828 313.771 67.4158 314.129C67.7803 314.333 68.1364 314.554 68.484 314.784C68.8928 315.058 69.216 315.443 69.4165 315.893C69.6169 316.344 69.6863 316.842 69.6167 317.33C69.5472 317.819 69.3415 318.277 69.0233 318.654C68.7052 319.03 68.2875 319.308 67.8185 319.457C69.6624 320.915 71.5346 322.341 73.4351 323.734C73.736 323.955 74.037 324.176 74.3422 324.389C76.8219 326.183 79.3512 327.912 81.9298 329.576C85.0751 331.608 88.2882 333.544 91.5691 335.384C92.0184 335.635 92.4678 335.886 92.9213 336.132C91.781 331.426 91.2032 326.6 91.2003 321.757C91.1992 319.548 91.3209 317.341 91.5649 315.145ZM93.8836 299.954L93.892 299.941C93.8919 299.949 93.8889 299.957 93.8836 299.962V299.954ZM90.5051 330.528L90.3737 330.235C90.378 330.018 90.378 329.806 90.3737 329.584C90.3737 329.525 90.361 329.465 90.361 329.406C90.4119 329.784 90.4543 330.163 90.5094 330.541L90.5051 330.528ZM109.974 331.107C110.021 330.911 110.059 330.775 110.106 330.579C110.089 330.537 110.072 330.494 110.055 330.456C108.643 327.084 101.191 333.883 97.9699 338.802C101.743 340.716 105.59 342.498 109.512 344.151C109.775 343.819 110.047 343.492 110.314 343.16C110.339 343.131 110.36 343.105 110.381 343.075C110.958 342.361 111.539 341.655 112.111 340.941C112.115 340.801 112.115 340.66 112.115 340.524C112.109 338.476 111.859 336.437 111.369 334.448C110.975 334.467 110.586 334.363 110.252 334.152C109.919 333.94 109.659 333.631 109.507 333.267C109.355 332.902 109.318 332.499 109.402 332.113C109.485 331.726 109.685 331.375 109.974 331.107Z" fill="white"/>
<path d="M201.67 242.617C202.688 243.321 203.847 243.793 205.066 243.999C206.285 244.205 207.535 244.14 208.726 243.81C209.918 243.479 211.023 242.89 211.963 242.085C212.904 241.28 213.657 240.278 214.169 239.149L244.093 241.956L236.747 228.132L209.456 227.585C207.509 226.848 205.359 226.852 203.415 227.598C201.471 228.344 199.867 229.779 198.907 231.632C197.947 233.485 197.698 235.626 198.207 237.651C198.717 239.676 199.949 241.442 201.67 242.617Z" fill="#FFB6B6"/>
<path d="M232.013 241.671L273.423 246.327L273.566 246.144C273.839 245.794 300.935 211.005 305.487 202.723C308.288 197.748 309.308 191.961 308.378 186.324L308.347 186.186L308.239 186.094C306.032 184.239 303.26 183.193 300.38 183.13C297.5 183.066 294.685 183.989 292.399 185.746C281.405 194.287 272.54 205.274 266.504 217.84L263.079 224.992L232.013 228.065V241.671Z" fill="#11B5E4"/>
<path d="M198.416 338.969L190.439 357.6C189.294 357.681 188.148 357.746 187.001 357.796C186.094 357.843 185.191 357.877 184.279 357.902L183.97 358L183.716 357.919C182.491 357.957 181.261 357.982 180.028 357.991C179.506 357.996 178.985 358 178.459 358C178.214 358 177.968 358 177.722 357.996L178.252 356.176L178.875 354.02L181.35 345.483L184.924 333.157L190.239 335.444L198.416 338.969Z" fill="#FFB6B6"/>
<path d="M255.9 340.313C251.801 342.298 247.619 344.125 243.353 345.793L239.182 338.756L252.628 332.834L255.9 340.313Z" fill="#FFB6B6"/>
<path d="M284.271 308.331V323.152C281.792 324.989 279.262 326.761 276.684 328.467V308.331H284.271Z" fill="#CACACA"/>
<path d="M310.926 298.943C308.793 301.315 306.598 303.627 304.338 305.878C299.021 311.189 293.375 316.16 287.434 320.759H253.607C252.709 320.759 251.821 320.567 251.003 320.195C250.185 319.823 249.456 319.28 248.864 318.603L248.859 318.59C248.154 317.792 247.664 316.826 247.435 315.784L247.431 315.776C247.335 315.328 247.287 314.872 247.287 314.415V305.287C247.288 303.605 247.954 301.993 249.139 300.804C250.324 299.614 251.931 298.945 253.607 298.943H310.926Z" fill="#3F3D56"/>
<path d="M324.863 263.313L321.197 279.07C321.555 281.353 321.674 283.667 321.553 285.975C319.815 288.314 318.022 290.605 316.173 292.85C314.469 294.921 312.72 296.952 310.926 298.943C308.793 301.315 306.598 303.627 304.338 305.878C298.455 307.731 291.52 308.488 284.271 308.539C281.77 308.56 279.231 308.492 276.684 308.356C266.353 307.812 255.904 306.15 247.346 304.424C245.083 303.973 242.955 303.514 240.996 303.067C237.287 302.23 234.184 301.447 231.938 300.852C229.407 300.189 227.966 299.759 227.966 299.759L218.339 315.929L209.599 330.606L198.336 345.024C197.259 345.121 196.181 345.204 195.101 345.27C193.957 345.351 192.811 345.416 191.664 345.466C190.757 345.513 189.854 345.547 188.942 345.572L188.633 345.67L188.378 345.589L184.292 344.284L182.915 343.846L177.959 342.264C177.959 342.264 179.066 338.769 181.003 332.94C181.715 330.801 186.759 314.989 192.037 301.184C193.601 297.085 195.22 292.927 196.886 288.79C198.251 285.393 199.641 282.008 201.049 278.671C203.494 272.884 215.313 269.763 229.229 268.126C229.937 268.045 230.649 267.965 231.365 267.888C238.457 267.14 245.981 266.753 253.018 266.574C256.54 266.485 259.94 266.451 263.102 266.447C264.124 266.447 265.117 266.45 266.082 266.455H266.086C268.693 266.468 271.092 266.506 273.203 266.549C273.615 266.557 274.013 266.57 274.403 266.578H274.407C274.67 266.583 274.929 266.591 275.183 266.595C279.799 266.715 282.631 266.859 282.631 266.859L283.729 258.219L283.953 256.476L284.165 254.818V254.814L284.191 254.605L284.365 254.601L287.417 254.542L313.07 254.04L323.997 253.576L324.863 263.313Z" fill="#2F2E41"/>
<path d="M255.248 333.212C254.2 333.748 253.145 334.275 252.085 334.785C247.986 336.771 243.804 338.598 239.538 340.266C238.321 340.746 237.101 341.21 235.867 341.656C235.732 341.465 235.592 341.274 235.452 341.082C229.568 332.983 225.906 327.821 218.339 315.929C215.173 310.954 211.989 305.767 208.899 300.469L231.272 289.993L233.782 288.819L240.996 303.067L247.431 315.776L248.864 318.603L255.248 333.212Z" fill="#2F2E41"/>
<path d="M291.538 161.59C302.921 161.59 312.15 152.334 312.15 140.916C312.15 129.497 302.921 120.241 291.538 120.241C280.154 120.241 270.926 129.497 270.926 140.916C270.926 152.334 280.154 161.59 291.538 161.59Z" fill="#FFB6B6"/>
<path d="M328.331 205.179C328.161 188.104 328.661 193.048 327.313 187.168C323.693 171.36 308.666 168.477 306.047 168.12C305.768 167.375 305.339 166.696 304.787 166.124C304.235 165.552 303.571 165.101 302.838 164.797C302.104 164.494 301.316 164.345 300.523 164.36C299.729 164.375 298.947 164.554 298.226 164.885L293.211 167.493C288.349 169.725 291.299 172.95 289.621 178.04L287.857 183.439L273.407 223.504L276.332 238.746L276.336 238.755L278.307 249.023L284.152 255.701L284.042 254.635L283.911 254.839L283.907 254.844L283.568 255.35C284.038 255.609 284.504 255.864 284.962 256.119C286.149 256.774 287.306 257.416 288.434 258.045C288.705 258.198 288.972 258.347 289.239 258.5H289.244C289.413 258.594 289.583 258.687 289.748 258.781C293.978 261.153 278.32 265.473 281.8 267.501C282.283 267.782 282.762 268.062 283.233 268.339C299.256 277.739 312.041 289.449 316.173 292.85C318.022 290.605 319.815 288.314 321.553 285.975C323.129 283.862 324.657 281.712 326.135 279.525C326.393 277.816 326.567 276.107 326.737 274.432C326.94 272.416 325.881 253.747 326.237 251.693C326.393 250.783 325.792 249.92 325.211 249.087C324.672 248.309 324.164 247.577 324.27 246.889C324.38 246.178 325.16 245.405 325.919 244.652C326.745 243.827 327.602 242.977 327.725 242.08C328.064 239.58 326.669 237.071 326.932 234.554C327.364 230.46 327.696 226.352 327.928 222.233C328.254 216.544 328.389 210.859 328.331 205.179Z" fill="#11B5E4"/>
<path d="M212.072 247.054C212.923 246.155 213.96 245.453 215.111 244.999C216.262 244.545 217.497 244.349 218.732 244.426C219.966 244.503 221.168 244.85 222.254 245.443C223.339 246.037 224.282 246.862 225.016 247.86L253.718 238.918L249.375 253.965L222.784 260.15C221.03 261.275 218.926 261.716 216.87 261.388C214.814 261.061 212.949 259.989 211.629 258.375C210.309 256.76 209.625 254.716 209.706 252.63C209.788 250.544 210.63 248.56 212.072 247.054Z" fill="#FFB6B6"/>
<path d="M246.869 255.379L300.145 244.362L286.319 247.797C286.475 247.381 302.015 206.078 303.903 196.812C305.099 191.226 304.355 185.397 301.794 180.293L301.723 180.171L301.593 180.116C298.935 179.003 295.978 178.833 293.211 179.633C290.443 180.432 288.029 182.154 286.368 184.514C278.408 195.951 273.207 209.087 271.175 222.886L270.029 230.736L251.245 236.372L246.869 255.379Z" fill="#11B5E4"/>
<path d="M147.583 238.554C147.77 239.099 148.124 239.572 148.595 239.902C149.066 240.233 149.629 240.406 150.204 240.396L161.434 240.106C162.013 240.094 162.573 239.895 163.03 239.538C163.487 239.182 163.816 238.686 163.969 238.126L165.558 221.081C166.122 221.338 166.736 221.464 167.355 221.452C168.44 221.424 169.471 220.965 170.219 220.176C170.968 219.387 171.373 218.331 171.346 217.242C171.319 216.153 170.861 215.119 170.074 214.369C169.287 213.618 168.235 213.211 167.149 213.239C166.902 213.238 166.655 213.264 166.413 213.315C166.15 213.03 165.83 212.803 165.474 212.649C165.119 212.495 164.735 212.417 164.347 212.421L147.073 212.869C146.93 212.874 146.787 212.892 146.647 212.922C146.268 212.993 145.909 213.144 145.593 213.366C145.278 213.588 145.013 213.875 144.818 214.208C144.622 214.541 144.499 214.912 144.459 215.296C144.418 215.68 144.46 216.069 144.581 216.436L147.583 238.554ZM165.884 219.924L167.015 215.863C167.143 215.393 167.146 214.898 167.023 214.428C167.078 214.428 167.127 214.402 167.182 214.401C167.957 214.385 168.707 214.678 169.267 215.216C169.828 215.754 170.152 216.493 170.171 217.27C170.189 218.048 169.899 218.801 169.364 219.364C168.83 219.928 168.094 220.256 167.319 220.276C166.817 220.292 166.321 220.17 165.884 219.924Z" fill="#2F2E41"/>
<path d="M146.647 212.922C147.015 215.032 151.153 216.516 156.128 216.258C160.703 216.047 164.443 214.436 165.129 212.526C164.875 212.451 164.611 212.415 164.347 212.421L147.073 212.869C146.93 212.874 146.787 212.892 146.647 212.922Z" fill="#3F3D56"/>
<path d="M71.5287 197.492V233.932C71.5291 234.396 71.7131 234.841 72.0405 235.17C72.3679 235.498 72.8118 235.683 73.2747 235.683H127.111C127.574 235.683 128.018 235.498 128.345 235.17C128.672 234.841 128.857 234.396 128.857 233.932V197.492C128.856 197.028 128.671 196.584 128.344 196.256C128.017 195.928 127.573 195.743 127.111 195.743H73.2747C72.8122 195.743 72.3687 195.928 72.0414 196.256C71.7142 196.584 71.5298 197.028 71.5287 197.492Z" fill="#3F3D56"/>
<path d="M72.7917 197.946V233.482C72.7921 233.73 72.8905 233.968 73.0655 234.143C73.2404 234.319 73.4775 234.418 73.7248 234.418H126.663C126.91 234.418 127.147 234.319 127.322 234.143C127.497 233.968 127.595 233.73 127.596 233.482V197.946C127.596 197.697 127.498 197.459 127.323 197.283C127.148 197.107 126.91 197.008 126.663 197.008H73.7248C73.4772 197.008 73.2398 197.107 73.0649 197.283C72.8899 197.459 72.7917 197.697 72.7917 197.946Z" fill="#11B5E4"/>
<path d="M70.4027 241.038C70.5014 241.162 70.6267 241.262 70.7694 241.331C70.9121 241.399 71.0684 241.434 71.2266 241.434H128.872C129.03 241.433 129.186 241.398 129.328 241.33C129.47 241.262 129.596 241.163 129.695 241.04C129.794 240.917 129.865 240.774 129.902 240.62C129.939 240.466 129.942 240.306 129.909 240.151L129.014 235.888C128.977 235.714 128.898 235.552 128.782 235.417C128.667 235.282 128.52 235.178 128.354 235.115C128.234 235.068 128.106 235.044 127.978 235.044H72.1179C71.989 235.044 71.8614 235.068 71.7414 235.115C71.5758 235.178 71.4286 235.282 71.3133 235.417C71.1979 235.552 71.118 235.714 71.081 235.888L70.1861 240.151C70.1543 240.306 70.1572 240.466 70.1947 240.619C70.2322 240.773 70.3032 240.916 70.4027 241.038Z" fill="#2F2E41"/>
<path d="M126 236.88H127.361C127.476 236.88 127.568 236.787 127.568 236.673V236.019C127.568 235.905 127.476 235.812 127.361 235.812H126C125.885 235.812 125.793 235.905 125.793 236.019V236.673C125.793 236.787 125.885 236.88 126 236.88Z" fill="#3F3D56"/>
<path d="M122.449 236.88H123.81C123.925 236.88 124.017 236.787 124.017 236.673V236.019C124.017 235.905 123.925 235.812 123.81 235.812H122.449C122.334 235.812 122.242 235.905 122.242 236.019V236.673C122.242 236.787 122.334 236.88 122.449 236.88Z" fill="#3F3D56"/>
<path d="M118.898 236.88H120.259C120.374 236.88 120.466 236.787 120.466 236.673V236.019C120.466 235.905 120.374 235.812 120.259 235.812H118.898C118.783 235.812 118.691 235.905 118.691 236.019V236.673C118.691 236.787 118.783 236.88 118.898 236.88Z" fill="#3F3D56"/>
<path d="M115.347 236.88H116.708C116.823 236.88 116.915 236.787 116.915 236.673V236.019C116.915 235.905 116.823 235.812 116.708 235.812H115.347C115.233 235.812 115.14 235.905 115.14 236.019V236.673C115.14 236.787 115.233 236.88 115.347 236.88Z" fill="#3F3D56"/>
<path d="M111.796 236.88H113.158C113.272 236.88 113.364 236.787 113.364 236.673V236.019C113.364 235.905 113.272 235.812 113.158 235.812H111.796C111.682 235.812 111.589 235.905 111.589 236.019V236.673C111.589 236.787 111.682 236.88 111.796 236.88Z" fill="#3F3D56"/>
<path d="M108.245 236.88H109.607C109.721 236.88 109.814 236.787 109.814 236.673V236.019C109.814 235.905 109.721 235.812 109.607 235.812H108.245C108.131 235.812 108.038 235.905 108.038 236.019V236.673C108.038 236.787 108.131 236.88 108.245 236.88Z" fill="#3F3D56"/>
<path d="M104.694 236.88H106.056C106.17 236.88 106.263 236.787 106.263 236.673V236.019C106.263 235.905 106.17 235.812 106.056 235.812H104.694C104.58 235.812 104.487 235.905 104.487 236.019V236.673C104.487 236.787 104.58 236.88 104.694 236.88Z" fill="#3F3D56"/>
<path d="M101.143 236.88H102.505C102.619 236.88 102.712 236.787 102.712 236.673V236.019C102.712 235.905 102.619 235.812 102.505 235.812H101.143C101.029 235.812 100.936 235.905 100.936 236.019V236.673C100.936 236.787 101.029 236.88 101.143 236.88Z" fill="#3F3D56"/>
<path d="M97.5922 236.88H98.9538C99.068 236.88 99.1607 236.787 99.1607 236.673V236.019C99.1607 235.905 99.068 235.812 98.9538 235.812H97.5922C97.4779 235.812 97.3852 235.905 97.3852 236.019V236.673C97.3852 236.787 97.4779 236.88 97.5922 236.88Z" fill="#3F3D56"/>
<path d="M94.0412 236.88H95.4028C95.5171 236.88 95.6097 236.787 95.6097 236.673V236.019C95.6097 235.905 95.5171 235.812 95.4028 235.812H94.0412C93.9269 235.812 93.8343 235.905 93.8343 236.019V236.673C93.8343 236.787 93.9269 236.88 94.0412 236.88Z" fill="#3F3D56"/>
<path d="M90.4903 236.88H91.8519C91.9662 236.88 92.0588 236.787 92.0588 236.673V236.019C92.0588 235.905 91.9662 235.812 91.8519 235.812H90.4903C90.376 235.812 90.2833 235.905 90.2833 236.019V236.673C90.2833 236.787 90.376 236.88 90.4903 236.88Z" fill="#3F3D56"/>
<path d="M86.9394 236.88H88.3009C88.4152 236.88 88.5079 236.787 88.5079 236.673V236.019C88.5079 235.905 88.4152 235.812 88.3009 235.812H86.9394C86.8251 235.812 86.7324 235.905 86.7324 236.019V236.673C86.7324 236.787 86.8251 236.88 86.9394 236.88Z" fill="#3F3D56"/>
<path d="M83.3884 236.88H84.75C84.8643 236.88 84.9569 236.787 84.9569 236.673V236.019C84.9569 235.905 84.8643 235.812 84.75 235.812H83.3884C83.2741 235.812 83.1815 235.905 83.1815 236.019V236.673C83.1815 236.787 83.2741 236.88 83.3884 236.88Z" fill="#3F3D56"/>
<path d="M79.8375 236.88H81.1991C81.3134 236.88 81.406 236.787 81.406 236.673V236.019C81.406 235.905 81.3134 235.812 81.1991 235.812H79.8375C79.7232 235.812 79.6306 235.905 79.6306 236.019V236.673C79.6306 236.787 79.7232 236.88 79.8375 236.88Z" fill="#3F3D56"/>
<path d="M76.2866 236.88H77.6482C77.7625 236.88 77.8551 236.787 77.8551 236.673V236.019C77.8551 235.905 77.7625 235.812 77.6482 235.812H76.2866C76.1723 235.812 76.0796 235.905 76.0796 236.019V236.673C76.0796 236.787 76.1723 236.88 76.2866 236.88Z" fill="#3F3D56"/>
<path d="M72.7356 236.88H74.0972C74.2115 236.88 74.3042 236.787 74.3042 236.673V236.019C74.3042 235.905 74.2115 235.812 74.0972 235.812H72.7356C72.6214 235.812 72.5287 235.905 72.5287 236.019V236.673C72.5287 236.787 72.6214 236.88 72.7356 236.88Z" fill="#3F3D56"/>
<path d="M126.042 238.661H127.403C127.517 238.661 127.61 238.568 127.61 238.453V237.8C127.61 237.685 127.517 237.593 127.403 237.593H126.042C125.927 237.593 125.835 237.685 125.835 237.8V238.453C125.835 238.568 125.927 238.661 126.042 238.661Z" fill="#3F3D56"/>
<path d="M122.491 238.661H123.852C123.967 238.661 124.059 238.568 124.059 238.453V237.8C124.059 237.685 123.967 237.593 123.852 237.593H122.491C122.376 237.593 122.284 237.685 122.284 237.8V238.453C122.284 238.568 122.376 238.661 122.491 238.661Z" fill="#3F3D56"/>
<path d="M118.94 238.661H120.301C120.416 238.661 120.508 238.568 120.508 238.453V237.8C120.508 237.685 120.416 237.593 120.301 237.593H118.94C118.825 237.593 118.733 237.685 118.733 237.8V238.453C118.733 238.568 118.825 238.661 118.94 238.661Z" fill="#3F3D56"/>
<path d="M115.389 238.661H116.75C116.865 238.661 116.957 238.568 116.957 238.453V237.8C116.957 237.685 116.865 237.593 116.75 237.593H115.389C115.274 237.593 115.182 237.685 115.182 237.8V238.453C115.182 238.568 115.274 238.661 115.389 238.661Z" fill="#3F3D56"/>
<path d="M111.838 238.661H113.199C113.314 238.661 113.406 238.568 113.406 238.453V237.8C113.406 237.685 113.314 237.593 113.199 237.593H111.838C111.724 237.593 111.631 237.685 111.631 237.8V238.453C111.631 238.568 111.724 238.661 111.838 238.661Z" fill="#3F3D56"/>
<path d="M108.287 238.661H109.649C109.763 238.661 109.855 238.568 109.855 238.453V237.8C109.855 237.685 109.763 237.593 109.649 237.593H108.287C108.173 237.593 108.08 237.685 108.08 237.8V238.453C108.08 238.568 108.173 238.661 108.287 238.661Z" fill="#3F3D56"/>
<path d="M104.736 238.661H106.098C106.212 238.661 106.305 238.568 106.305 238.453V237.8C106.305 237.685 106.212 237.593 106.098 237.593H104.736C104.622 237.593 104.529 237.685 104.529 237.8V238.453C104.529 238.568 104.622 238.661 104.736 238.661Z" fill="#3F3D56"/>
<path d="M101.185 238.661H102.547C102.661 238.661 102.754 238.568 102.754 238.453V237.8C102.754 237.685 102.661 237.593 102.547 237.593H101.185C101.071 237.593 100.978 237.685 100.978 237.8V238.453C100.978 238.568 101.071 238.661 101.185 238.661Z" fill="#3F3D56"/>
<path d="M97.6341 238.661H98.9957C99.11 238.661 99.2026 238.568 99.2026 238.453V237.8C99.2026 237.685 99.11 237.593 98.9957 237.593H97.6341C97.5198 237.593 97.4272 237.685 97.4272 237.8V238.453C97.4272 238.568 97.5198 238.661 97.6341 238.661Z" fill="#3F3D56"/>
<path d="M94.0832 238.661H95.4448C95.5591 238.661 95.6517 238.568 95.6517 238.453V237.8C95.6517 237.685 95.5591 237.593 95.4448 237.593H94.0832C93.9689 237.593 93.8763 237.685 93.8763 237.8V238.453C93.8763 238.568 93.9689 238.661 94.0832 238.661Z" fill="#3F3D56"/>
<path d="M90.5323 238.661H91.8939C92.0081 238.661 92.1008 238.568 92.1008 238.453V237.8C92.1008 237.685 92.0081 237.593 91.8939 237.593H90.5323C90.418 237.593 90.3253 237.685 90.3253 237.8V238.453C90.3253 238.568 90.418 238.661 90.5323 238.661Z" fill="#3F3D56"/>
<path d="M86.9813 238.661H88.3429C88.4572 238.661 88.5499 238.568 88.5499 238.453V237.8C88.5499 237.685 88.4572 237.593 88.3429 237.593H86.9813C86.867 237.593 86.7744 237.685 86.7744 237.8V238.453C86.7744 238.568 86.867 238.661 86.9813 238.661Z" fill="#3F3D56"/>
<path d="M83.4304 238.661H84.792C84.9063 238.661 84.9989 238.568 84.9989 238.453V237.8C84.9989 237.685 84.9063 237.593 84.792 237.593H83.4304C83.3161 237.593 83.2234 237.685 83.2234 237.8V238.453C83.2234 238.568 83.3161 238.661 83.4304 238.661Z" fill="#3F3D56"/>
<path d="M79.8795 238.661H81.2411C81.3553 238.661 81.448 238.568 81.448 238.453V237.8C81.448 237.685 81.3553 237.593 81.2411 237.593H79.8795C79.7652 237.593 79.6725 237.685 79.6725 237.8V238.453C79.6725 238.568 79.7652 238.661 79.8795 238.661Z" fill="#3F3D56"/>
<path d="M76.3285 238.661H77.6901C77.8044 238.661 77.8971 238.568 77.8971 238.453V237.8C77.8971 237.685 77.8044 237.593 77.6901 237.593H76.3285C76.2142 237.593 76.1216 237.685 76.1216 237.8V238.453C76.1216 238.568 76.2142 238.661 76.3285 238.661Z" fill="#3F3D56"/>
<path d="M72.7776 238.661H74.1392C74.2535 238.661 74.3461 238.568 74.3461 238.453V237.8C74.3461 237.685 74.2535 237.593 74.1392 237.593H72.7776C72.6633 237.593 72.5707 237.685 72.5707 237.8V238.453C72.5707 238.568 72.6633 238.661 72.7776 238.661Z" fill="#3F3D56"/>
<path d="M96.5688 240.798H110.359C110.473 240.798 110.566 240.705 110.566 240.59V239.937C110.566 239.822 110.473 239.73 110.359 239.73H96.5688C96.4546 239.73 96.3619 239.822 96.3619 239.937V240.59C96.3619 240.705 96.4546 240.798 96.5688 240.798Z" fill="#3F3D56"/>
<path d="M200.484 239.057L224.578 217.928C225.723 216.923 223.539 219.916 224.54 221.066C225.542 222.215 229.35 221.085 228.205 222.089L204.111 243.218L198.009 244.615L200.484 239.057Z" fill="#3F3D56"/>
<path d="M200.484 239.057L201.068 238.545C201.847 238.936 202.543 239.478 203.115 240.138C203.793 240.913 204.285 241.834 204.554 242.829L204.111 243.218L199.248 244.331L198.009 244.615L198.526 243.451L200.484 239.057Z" fill="#CCCCCC"/>
<path d="M198.526 243.451C198.706 243.531 198.866 243.652 198.991 243.805C199.116 243.958 199.204 244.138 199.248 244.331L198.009 244.615L198.526 243.451Z" fill="#3F3D56"/>
<path d="M357.688 171.338C355.416 174.748 351.779 177.107 347.863 178.277C346.272 178.752 344.629 179.031 342.971 179.11C342.766 177.229 342.276 175.391 341.517 173.659C341.594 175.503 341.338 177.345 340.762 179.097C338.272 178.956 335.838 178.301 333.611 177.175C329.266 174.943 325.922 170.674 325.18 165.832C324.307 160.177 326.863 154.624 327.787 148.978C328.715 143.331 326.973 136.18 321.463 134.696C317.266 133.565 317.737 134.054 314.248 136.652C317.877 142.034 304.473 161.756 298.988 160.037C295.887 159.064 293.901 156.21 293.261 156.21C288.95 163.659 297.068 176.21 288.887 178.817L289.561 178.141C294.499 172.048 284.177 159.152 289.115 153.059C290.493 151.354 291.96 149.335 291.553 147.179C291.167 145.13 287.924 144.046 286.975 145.729C288.683 141.805 286.161 136.567 281.986 135.559C278.277 134.662 278.344 135.767 274.623 136.248C274.379 134.635 273.925 133.061 273.27 131.567C273.339 133.176 273.151 134.787 272.715 136.337C271.4 136.311 270.131 135.851 269.103 135.028C266.068 132.574 266.683 127.421 269.392 124.611C272.105 121.8 276.136 120.788 279.981 120.134C281.098 112.327 302.572 111.513 305.418 119.313C306.631 113.488 313.9 110.465 319.551 112.272C325.201 114.079 329.122 119.373 331.187 124.951C333.251 130.525 333.828 136.524 335.099 142.332C336.371 148.14 338.52 154.054 342.945 158.013C347.371 161.967 354.581 163.276 359.244 159.603C360.715 163.429 359.956 167.924 357.688 171.338Z" fill="#2F2E41"/>
</g>
<defs>
<clipPath id="clip0_32_6">
<rect width="360" height="358" fill="white"/>
</clipPath>
</defs>
</svg>
