<svg width="35" height="30" viewBox="0 0 35 30" fill="none" xmlns="http://www.w3.org/2000/svg">
<path d="M17.0973 18.9755L6.71872 28.5065C6.36585 28.9033 5.88058 29.231 5.3066 29.4602C4.73262 29.6894 4.08797 29.813 3.43067 29.8196C2.52901 29.8284 1.65897 29.5821 1.01001 29.1342C0.680064 28.9177 0.419199 28.6529 0.245153 28.3579C0.0711066 28.0628 -0.0120353 27.7444 0.0014046 27.4242C0.0339469 26.7073 0.387512 26.0169 1.01001 25.4545L12.841 14.9856L1.7463 4.50939C1.23075 4.01774 0.948065 3.42121 0.939415 2.80664C0.936797 2.44012 1.04029 2.07717 1.24339 1.74066C1.44648 1.40416 1.74477 1.10137 2.11948 0.851378C2.47139 0.588541 2.89416 0.37949 3.36223 0.236876C3.83031 0.0942615 4.33395 0.0210456 4.84271 0.0216511C5.49425 0.02921 6.13278 0.153332 6.70007 0.382699C7.26735 0.612065 7.74533 0.939377 8.09042 1.33478L18.116 10.7792L28.202 1.49351C28.5626 1.0603 29.0669 0.697377 29.6703 0.43687C30.2737 0.176362 30.9577 0.0263137 31.6615 7.00085e-06C32.0983 -0.000768558 32.5307 0.0629016 32.9316 0.187043C33.3325 0.311184 33.6932 0.493129 33.9914 0.721508C34.3092 0.935589 34.5626 1.19383 34.7361 1.48041C34.9095 1.767 34.9993 2.07589 35 2.38817C34.9893 2.947 34.7197 3.48749 34.2335 3.92497L22.3622 14.7908L33.83 25.6133C34.3721 26.097 34.6738 26.6961 34.6873 27.316C34.6906 27.6745 34.585 28.0292 34.3777 28.3556C34.1705 28.682 33.8666 28.9723 33.4871 29.2064C32.747 29.7154 31.7603 29.9998 30.7336 30C30.0788 29.9942 29.4365 29.8709 28.8656 29.6415C28.2947 29.4121 27.8133 29.0839 27.4657 28.6869L17.0973 18.9755Z" fill="#E3170A"/>
</svg>
